

<svg width="333" height="221" viewBox="0 0 333 221" fill="none" xmlns="http://www.w3.org/2000/svg">
<path fill-rule="evenodd" clip-rule="evenodd" d="M0.839033 165.145C9.2727 132.497 94.6106 151.096 150.557 141.003C206.504 130.909 272.692 83.9037 316.499 106.93C360.303 129.955 313.695 185.616 213.225 198.176C112.754 210.737 -7.59464 197.793 0.839033 165.145Z" fill="#CCECFA"/>
<g opacity="0.5">
<path fill-rule="evenodd" clip-rule="evenodd" d="M73.3265 24.3345C72.8021 24.8589 73.0058 26.7219 72.9948 27.4115C72.9778 28.4847 73.0445 29.5486 73.1341 30.6181C73.1942 31.3341 73.5329 38.1682 74.4747 37.6431C75.0058 37.3477 74.6731 35.3705 74.6721 34.7453C74.6697 33.3553 74.612 31.9684 74.5197 30.5814C74.4337 29.2939 74.3793 28.0211 74.429 26.7309C74.441 26.4161 74.7354 22.9214 73.3265 24.3345Z" fill="#CCECFA"/>
<path fill-rule="evenodd" clip-rule="evenodd" d="M96.1637 23.4919C91.6586 23.528 87.1553 23.7506 82.6522 23.8868C80.4852 23.9526 78.3199 24.0357 76.1555 24.1562C75.4177 24.1969 73.8358 23.9606 73.2214 24.3541C71.8572 25.2277 74.0572 25.432 74.6436 25.4106C83.5554 25.0872 92.4698 24.6609 101.389 24.6409C105.764 24.6312 110.137 24.7557 114.513 24.7277C116.186 24.717 118.037 23.9956 118.46 25.9451C118.937 28.1445 118.389 30.5937 118.24 32.8042C118.141 34.2796 118.176 35.7247 118.242 37.1988C118.285 38.1435 118.174 39.2077 118.341 40.1347C118.501 41.0269 119.142 41.5624 119.729 40.5626C120.08 39.9651 119.906 38.49 119.929 37.798C119.96 36.8657 119.931 35.934 119.931 35.0017C119.931 32.7261 120.251 30.4595 120.209 28.1846C120.182 26.7175 120.104 24.0581 118.256 23.7055C116.221 23.3173 113.72 23.7076 111.637 23.6839C106.477 23.6248 101.326 23.4515 96.1637 23.4919Z" fill="#CCECFA"/>
<path fill-rule="evenodd" clip-rule="evenodd" d="M83.7502 37.7248C82.0512 37.7248 80.3523 37.7352 78.6537 37.7632C77.1968 37.7872 74.9064 37.4831 73.5502 38.0052C72.6221 38.3624 72.3757 39.4002 73.5502 39.6766C74.8318 39.978 76.7627 39.485 78.1033 39.4613C84.8257 39.3425 91.6127 39.1876 98.3258 39.6135C104.616 40.0121 111.027 40.3986 117.327 39.978C117.857 39.9423 120.56 39.8348 119.326 38.82C118.607 38.2279 115.69 38.6174 114.755 38.589C111.457 38.4896 108.155 38.4675 104.857 38.3424C101.602 38.2185 98.3625 37.852 95.1066 37.7615C91.3244 37.656 87.5338 37.7248 83.7502 37.7248Z" fill="#CCECFA"/>
<path fill-rule="evenodd" clip-rule="evenodd" d="M82.0501 28.0504C84.6979 28.1659 87.3176 32.0107 84.6385 33.869C82.1252 35.6125 77.4151 33.7018 78.8126 30.321C78.6116 30.8097 79.0667 29.7899 79.0723 29.7829C79.338 29.4694 79.8151 29.1226 80.1428 28.8752C80.5176 28.5925 80.908 28.281 81.36 28.1395C81.6567 28.0464 81.6101 28.3965 82.0501 28.0504ZM80.7606 26.6634C79.5214 27.1481 78.956 27.6945 78.1042 28.6833C77.5151 29.3679 76.7636 29.7278 76.7703 30.6528C76.772 30.8574 77.0343 31.0824 77.08 31.2797C77.1427 31.552 77.07 31.9012 77.1197 32.1906C77.6324 35.1779 81.192 36.185 83.7977 35.6212C86.0674 35.1298 87.7651 32.9484 87.2393 30.576C86.7099 28.1879 83.1733 25.7187 80.7606 26.6634Z" fill="#CCECFA"/>
<path fill-rule="evenodd" clip-rule="evenodd" d="M79.6567 30.8341C79.6567 31.9086 81.3523 31.9086 81.3523 30.8341C81.3523 29.7715 79.6567 29.7258 79.6567 30.8341Z" fill="#CCECFA"/>
<path fill-rule="evenodd" clip-rule="evenodd" d="M81.7778 30.6163C81.7778 31.4701 83.1251 31.4701 83.1251 30.6163C83.1251 29.7721 81.7778 29.736 81.7778 30.6163Z" fill="#CCECFA"/>
<path fill-rule="evenodd" clip-rule="evenodd" d="M82.1954 32.3772C81.764 32.5434 81.2165 32.1989 80.8625 32.4259C80.2354 32.8278 80.8642 33.1917 81.2002 33.3533C82.7138 34.0806 82.9832 32.0751 82.1954 32.3772Z" fill="#CCECFA"/>
<path fill-rule="evenodd" clip-rule="evenodd" d="M105.312 29.9958C105.107 30.0829 105.267 30.0148 105.312 29.9958V29.9958ZM98.7203 29.0311C97.5874 29.2871 96.6309 30.3463 95.4001 30.2048C94.4569 30.0959 93.8181 29.1846 92.887 29.0521C91.6958 28.8825 88.4536 31.6034 90.1582 32.0704C91.1527 32.3428 91.7045 30.5232 92.583 30.4264C93.2781 30.35 94.2232 31.2032 94.9433 31.3247C96.2869 31.5514 97.2097 30.8106 98.3889 30.3326C99.6707 29.8132 100.4 30.2809 101.514 30.858C102.394 31.3137 103.223 31.6104 104.229 31.4222C105.174 31.2459 106.361 30.2732 107.312 30.373C108.244 30.4708 108.909 31.4442 109.867 31.5343C110.262 31.5717 110.85 31.7062 110.784 31.096C110.73 30.6073 110.186 30.6901 109.845 30.5125C108.969 30.0559 108.149 29.2467 107.092 29.3158C106.297 29.3676 105.573 29.9274 104.84 30.1951C102.44 31.0717 101.09 28.499 98.7203 29.0311Z" fill="#CCECFA"/>
<path fill-rule="evenodd" clip-rule="evenodd" d="M100.725 44.5095C96.0954 44.5522 91.4493 44.621 86.8323 44.9925C85.7374 45.0807 74.56 46.1375 74.5813 46.2136C74.6203 46.3541 76.0579 46.5695 76.0492 46.6025C75.9522 46.3622 75.7308 46.2623 75.3848 46.3041C85.9855 46.3041 96.5528 45.3537 107.167 45.5246C109.835 45.5674 112.512 45.5497 115.177 45.6338C115.843 45.6548 117.491 46.1322 118.014 45.8314C119.385 45.0419 116.894 44.9508 116.481 44.9178C111.257 44.4992 105.964 44.4571 100.725 44.5095Z" fill="#CCECFA"/>
<path fill-rule="evenodd" clip-rule="evenodd" d="M73.2092 46.762C72.5168 47.457 73.1542 49.9569 73.1815 50.8962C73.2209 52.2548 73.1885 53.6228 73.3076 54.9777C73.4436 56.5253 73.6543 58.1743 74.0597 59.6758C74.283 60.5029 75.0672 61.8175 75.3779 60.3143C75.5996 59.2408 75.2629 57.8168 75.1455 56.7232C74.9888 55.2601 74.9508 53.8161 74.9452 52.346C74.9398 51.0651 74.9151 49.7786 74.8101 48.5018C74.7558 47.8385 74.4227 45.5533 73.2092 46.762Z" fill="#CCECFA"/>
<path fill-rule="evenodd" clip-rule="evenodd" d="M90.6246 59.4932C87.3388 59.5497 84.0459 59.6271 80.7657 59.8327C79.4212 59.9172 78.0776 60.0424 76.7381 60.1849C76.465 60.2139 73.4396 60.3368 74.7914 61.4547C75.4015 61.9594 77.9116 61.2618 78.7404 61.189C80.135 61.0665 81.5288 60.987 82.9271 60.9276C86.1672 60.7901 89.4171 60.6683 92.6603 60.7247C98.5835 60.8275 104.468 60.8735 110.393 60.7414C111.235 60.7227 117.83 60.8989 118.054 60.022C118.234 59.3153 115.876 59.6395 115.446 59.6525C113.868 59.6995 112.291 59.6885 110.712 59.6805C104.028 59.6461 97.3043 59.3801 90.6246 59.4932Z" fill="#CCECFA"/>
<path fill-rule="evenodd" clip-rule="evenodd" d="M116.937 45.5893C117.041 48.5188 117.539 51.4447 117.699 54.3825C117.772 55.7258 117.857 57.0677 117.923 58.4113C117.944 58.8446 117.77 59.889 118.282 60.1381C118.984 60.4802 119.078 59.7912 119.21 59.3249C119.589 57.979 119.332 56.2302 119.298 54.8475C119.265 53.5083 119.262 52.167 119.164 50.8305C119.063 49.4648 118.788 48.1253 118.661 46.7643C118.607 46.1888 118.795 45.2315 118.185 44.8743C117.658 44.5655 116.914 44.9544 116.937 45.5893Z" fill="#CCECFA"/>
<path fill-rule="evenodd" clip-rule="evenodd" d="M81.8483 49.5945C82.8894 49.8922 83.7446 49.7811 84.7394 50.5401C85.5638 51.1694 86.4096 52.09 86.683 53.1075C87.3148 55.4585 85.1728 56.7467 83.1648 56.772C81.1078 56.7981 78.063 56.3204 78.1683 53.6803C78.2494 51.6521 79.7283 49.6732 81.8483 49.5945ZM81.9216 48.2659C79.2215 48.4004 77.0435 51.4364 77.0668 53.9921C77.0952 57.0895 80.6001 57.8873 83.0901 57.909C85.9002 57.933 88.7023 55.9903 87.9496 52.8261C87.3461 50.2908 84.518 48.1307 81.9216 48.2659Z" fill="#CCECFA"/>
<path fill-rule="evenodd" clip-rule="evenodd" d="M79.2056 52.4244C79.2056 53.2883 80.5685 53.2883 80.5685 52.4244C80.5685 51.5705 79.2056 51.5338 79.2056 52.4244Z" fill="#CCECFA"/>
<path fill-rule="evenodd" clip-rule="evenodd" d="M82.0642 52.0456C82.0642 52.9162 83.4378 52.9162 83.4378 52.0456C83.4378 51.1851 82.0642 51.148 82.0642 52.0456Z" fill="#CCECFA"/>
<path fill-rule="evenodd" clip-rule="evenodd" d="M80.4883 54.0153C79.6012 54.9023 82.7174 56.4568 83.4525 55.2231C84.0559 54.21 82.7417 54.5458 82.276 54.491C81.7696 54.4313 80.9014 53.6028 80.4883 54.0153Z" fill="#CCECFA"/>
<path fill-rule="evenodd" clip-rule="evenodd" d="M105.404 52.0633C105.318 52.0993 105.318 52.0993 105.404 52.0633V52.0633ZM93.7012 50.6199C92.803 50.7885 89.8552 51.7842 89.8156 52.8511C89.7426 54.7905 92.6297 52.804 93.2564 52.549C94.9594 51.856 95.8542 53.2697 97.5651 53.3441C99.0507 53.4089 100.417 52.1357 101.816 52.2863C103.283 52.4442 103.988 54.0061 105.681 53.1769C106.577 52.7383 106.554 52.0616 105.549 51.9979C104.941 51.9595 104.524 52.2108 103.89 51.9491C102.899 51.5399 102.5 50.8736 101.315 50.9794C100.42 51.0595 99.6115 51.5643 98.738 51.7599C96.7383 52.2072 95.6291 50.2581 93.7012 50.6199Z" fill="#CCECFA"/>
<path fill-rule="evenodd" clip-rule="evenodd" d="M112.303 52.9054C112.241 52.9315 112.241 52.9315 112.303 52.9054V52.9054ZM112.529 52.0976C112.539 52.102 112.607 52.1961 112.529 52.0976V52.0976ZM111.499 51.4814C111.461 51.5111 111.461 51.5111 111.499 51.4814V51.4814ZM111.522 51.4737C111.722 51.5932 113.327 52.6925 112.161 52.9512C111.569 53.0827 111.079 51.89 111.522 51.4737ZM110.99 50.256C108.419 51.43 111.186 55.631 113.204 53.9242C114.053 53.2059 114.165 51.7541 113.339 51.0061C112.844 50.5574 111.662 49.9489 110.99 50.256Z" fill="#CCECFA"/>
<path fill-rule="evenodd" clip-rule="evenodd" d="M86.8516 66.8113C83.6427 66.812 80.4059 66.7446 77.2014 66.9352C76.6623 66.9672 74.608 66.8644 74.3299 67.4289C73.8219 68.4614 75.9355 67.949 76.2426 67.9179C82.6229 67.2783 89.2876 67.6462 95.689 67.8285C100.924 67.9777 106.132 68.0701 111.361 68.3402C112.735 68.4113 114.109 68.4897 115.482 68.5729C115.93 68.5999 117.056 68.897 117.151 68.181C117.238 67.5183 115.833 67.6679 115.482 67.6495C112.69 67.5023 109.9 67.3481 107.108 67.1909C100.39 66.8117 93.5806 66.81 86.8516 66.8113Z" fill="#CCECFA"/>
<path fill-rule="evenodd" clip-rule="evenodd" d="M74.2269 67.9593C73.6278 68.5558 73.9085 70.8334 73.8919 71.5865C73.8625 72.9034 73.8005 74.2189 73.7728 75.5355C73.7438 76.9114 73.7838 78.2937 73.8652 79.6677C73.8992 80.2445 74.3723 83.0325 75.1167 81.4369C75.4494 80.7239 75.1087 78.738 75.1137 77.9302C75.1231 76.4598 75.2021 74.9957 75.2751 73.5276C75.3378 72.2655 75.3401 71.002 75.3954 69.7395C75.4128 69.3369 75.4604 66.7205 74.2269 67.9593Z" fill="#CCECFA"/>
<path fill-rule="evenodd" clip-rule="evenodd" d="M117.691 79.7211C114.568 80.0416 111.395 79.8901 108.261 80.1267C105.559 80.3307 102.86 80.4141 100.152 80.4715C94.0187 80.6014 87.8751 80.7276 81.7598 81.2393C80.3662 81.3558 78.974 81.4797 77.5768 81.5421C76.878 81.5735 73.9452 81.255 73.7268 81.9927C73.3548 83.2488 76.4909 82.7518 77.1674 82.7321C78.6549 82.689 80.1355 82.5816 81.6188 82.4684C87.8544 81.9927 94.1134 81.8505 100.362 81.6526C103.761 81.5454 107.135 81.2964 110.526 81.0697C112.217 80.9569 113.911 80.9532 115.601 80.8438C116.044 80.8154 117.609 80.8718 117.927 80.5153C118.145 80.2706 118.201 79.6734 117.691 79.7211Z" fill="#CCECFA"/>
<path fill-rule="evenodd" clip-rule="evenodd" d="M116.632 68.173C116.739 71.1716 116.909 74.1672 117.01 77.1658C117.04 78.0674 116.768 79.6834 117.27 80.4785C118.076 81.757 118.705 80.4041 118.853 79.6073C119.319 77.0927 118.818 74.3148 118.688 71.7848C118.638 70.8198 118.937 68.6714 118.472 67.8075C118.028 66.9846 116.592 67.0671 116.632 68.173Z" fill="#CCECFA"/>
<path fill-rule="evenodd" clip-rule="evenodd" d="M111.39 72.4434C112.586 72.7679 112.761 75.3723 111.411 75.5649C109.402 75.8516 110.28 72.9805 111.39 72.4434ZM111.055 71.4079C110.69 71.3966 109.847 71.2958 109.622 71.5932C109.434 71.8422 109.624 72.367 109.602 72.6043C109.523 73.4515 108.835 73.9409 109.143 74.941C109.352 75.62 109.911 76.2582 110.592 76.4939C114.188 77.7383 114.144 70.7821 111.055 71.4079Z" fill="#CCECFA"/>
<path fill-rule="evenodd" clip-rule="evenodd" d="M81.4161 70.3703C81.4017 70.2501 81.3877 70.1296 81.3737 70.0091C83.3234 70.9304 84.8746 72.6445 84.2272 74.9452C83.7331 76.7 81.9488 77.3225 80.2862 76.8893C78.4456 76.4096 77.5661 74.8907 78.0625 73.0254C78.2916 72.1652 78.9943 71.0085 79.9032 70.7321C80.3262 70.6033 81.2617 70.9314 81.4161 70.3703ZM80.2759 69.6419C79.7828 69.675 79.3027 69.8809 78.9003 70.162C79.2771 69.8432 79.7791 69.6529 80.2759 69.6419ZM80.2899 68.5083C79.072 68.5454 78.2736 69.2837 77.5511 70.1707C77.3244 70.4491 76.5576 71.1868 76.6526 71.562C76.7277 71.8584 76.924 72.292 77.3377 71.9616C75.1714 76.2844 80.7676 79.9713 84.1838 76.9654C87.372 74.16 84.2088 68.3768 80.2899 68.5083Z" fill="#CCECFA"/>
<path fill-rule="evenodd" clip-rule="evenodd" d="M79.1833 72.5238C79.1833 73.0996 80.0758 73.0996 80.0758 72.5238C80.0758 71.9483 79.1833 71.9483 79.1833 72.5238Z" fill="#CCECFA"/>
<path fill-rule="evenodd" clip-rule="evenodd" d="M80.7063 72.6223C80.7063 73.2071 81.6131 73.2071 81.6131 72.6223C81.6131 72.0371 80.7063 72.0371 80.7063 72.6223Z" fill="#CCECFA"/>
<path fill-rule="evenodd" clip-rule="evenodd" d="M81.3976 74.6766C80.9735 74.7113 79.4202 74.5668 79.1479 74.939C78.6921 75.5605 79.4192 75.5822 79.7763 75.6496C80.098 75.7101 81.4962 75.6757 81.6933 75.3899C81.8673 75.1372 81.8266 74.6402 81.3976 74.6766Z" fill="#CCECFA"/>
<path fill-rule="evenodd" clip-rule="evenodd" d="M100.108 73.0643C100.035 73.0944 100.035 73.0944 100.108 73.0643V73.0643ZM94.2405 72.6347C93.2843 72.7048 92.4749 73.2556 91.5607 73.4752C90.5852 73.7099 90.1628 73.2783 89.2757 72.9959C88.3529 72.7025 87.6965 72.8183 86.9547 73.4495C86.5346 73.8071 85.6125 74.6299 85.8752 75.2651C86.4766 76.7192 87.8381 74.3535 88.4786 74.2437C89.4774 74.0721 90.3662 74.9467 91.5184 74.6963C92.5622 74.47 93.4884 73.7523 94.5785 73.7446C95.4904 73.738 96.3495 74.2373 97.2496 74.3582C98.6239 74.5428 99.526 74.0544 100.796 73.6916C101.898 73.3774 102.67 73.792 103.706 74.1409C104.179 74.3001 105.759 74.8796 105.469 73.8287C105.386 73.532 103.304 73.0012 102.982 72.8991C101.843 72.5392 101.123 72.6794 100.038 73.0934C99.1339 73.4389 98.3731 73.6068 97.4037 73.4168C96.3355 73.2075 95.364 72.5493 94.2405 72.6347Z" fill="#CCECFA"/>
</g>
<g opacity="0.5">
<path fill-rule="evenodd" clip-rule="evenodd" d="M138.226 24.448C138.38 21.1246 138.592 17.8055 138.704 14.4801C138.76 12.8321 138.803 11.1841 138.845 9.53571C138.854 9.16885 138.864 8.80199 138.872 8.4348C138.899 7.18803 138.751 7.08588 140.005 6.97539C145.595 6.48102 151.208 6.31745 156.805 5.87048C163.556 5.33137 170.342 4.95885 177.111 4.79194C180.12 4.71784 183.141 4.56395 186.15 4.65742C186.816 4.67845 188.125 4.50453 188.387 5.02361C188.501 5.24759 188.263 6.01902 188.233 6.27773C188.138 7.08554 188.05 7.89637 187.996 8.70853C187.676 13.4977 187.866 18.4077 188.793 23.1244C186.62 21.8977 183.875 20.8425 181.342 21.0521C178.761 21.2654 176.829 22.7589 174.763 24.1339C173.594 24.9113 173.2 25.1159 172.034 24.3625C171.029 23.7133 170.078 22.9712 169.13 22.2425C167.667 21.1186 166.286 19.8995 164.867 18.7208C162.258 16.5537 158.664 13.469 155.06 14.3773C152.486 15.0262 150.109 16.4429 147.874 17.8292C144.555 19.8891 141.55 22.4117 138.226 24.448ZM182.968 3.18164C170.141 3.18164 157.411 4.42675 144.621 5.10005C143.285 5.17048 141.954 5.27396 140.623 5.40248C139.735 5.48827 137.566 5.12842 136.985 5.88717C136.597 6.39356 136.93 6.46967 136.985 6.95069C137.053 7.55689 137.013 8.27524 136.995 8.91716C136.952 10.4637 136.907 12.0099 136.872 13.5564C136.74 19.4014 136.657 25.2451 136.893 31.0888C136.945 32.3629 137.409 34.1275 137.155 35.3659C136.971 36.2625 136.357 36.8079 137.774 36.9739C139.167 37.1368 140.871 36.7222 142.266 36.5893C143.669 36.4554 145.071 36.3106 146.476 36.1944C152.583 35.6907 158.749 35.7668 164.871 35.5992C171.049 35.4303 177.229 35.4196 183.409 35.4163C185.995 35.4146 188.95 35.5602 191.473 34.8478C192.361 34.5971 192.504 34.4736 192.285 33.5917C192.244 33.4244 191.976 33.3627 191.897 33.0599C191.79 32.6483 191.845 32.1483 191.82 31.7197C191.738 30.3204 191.71 28.9187 191.644 27.5184C191.534 25.1787 191.131 22.9081 190.833 20.5921C190.49 17.9177 190.507 15.2018 190.5 12.5096C190.496 11.0165 190.535 9.52803 190.654 8.0389C190.731 7.08388 191.201 5.65784 190.963 4.76724C190.844 4.32394 190.65 3.97211 190.189 3.78117C189.897 3.66033 189.651 3.75479 189.362 3.72442C189.02 3.68803 188.806 3.63963 188.396 3.54683C186.638 3.14793 184.759 3.18164 182.968 3.18164Z" fill="#CCECFA"/>
<path fill-rule="evenodd" clip-rule="evenodd" d="M175.869 9.54032C175.868 10.471 175.723 11.8446 176.152 12.7209C176.695 13.8328 177.375 13.4853 177.555 12.4405C177.659 11.8419 177.656 10.0704 177.464 9.54032C177.192 8.78992 175.869 8.27852 175.869 9.54032Z" fill="#CCECFA"/>
<path fill-rule="evenodd" clip-rule="evenodd" d="M177.429 9.89964C176.556 9.93069 174.014 9.72072 173.424 10.4234C172.411 11.6284 174.175 11.8417 174.932 11.7743C175.808 11.6965 178.515 11.8868 179.102 11.1835C180.083 10.0068 178.115 9.87461 177.429 9.89964Z" fill="#CCECFA"/>
<path fill-rule="evenodd" clip-rule="evenodd" d="M143.563 40.9941C147.399 41.6614 146.206 47.5184 142.575 46.1618C141.31 45.6892 139.447 44.3232 140.146 42.7139C140.668 41.5112 142.37 40.8796 143.563 40.9941ZM141.974 39.1729C139.479 39.5935 137.773 42.297 138.629 44.6554C139.454 46.9306 142.584 48.5966 144.893 47.7788C147.097 46.9984 148.196 44.0622 147.453 41.9145C146.677 39.6706 144.148 38.8063 141.974 39.1729Z" fill="#CCECFA"/>
<path fill-rule="evenodd" clip-rule="evenodd" d="M165.311 41.6791C164.356 41.7586 163.53 42.4282 162.569 42.5467C161.67 42.6575 160.925 42.3498 160.084 42.1034C159.067 41.8063 158.134 41.6755 157.094 41.9395C156.3 42.1415 155.517 42.6829 154.692 42.748C153.068 42.8765 151.181 41.0219 149.914 43.1195C149.306 44.1253 150.188 44.7729 151.097 44.3039C152.045 43.8152 151.579 43.6399 152.755 43.929C153.736 44.1697 154.528 44.3002 155.51 43.9631C156.4 43.6573 157.181 43.0982 158.149 43.0354C159.096 42.9736 159.919 43.4056 160.825 43.5922C161.938 43.8212 162.923 43.6476 163.977 43.2984C164.981 42.966 165.381 42.7844 166.394 43.0808C167.034 43.2684 168.435 43.8649 169.059 43.3842C170.137 42.5534 168.693 42.4319 168.124 42.3137C167.209 42.1238 166.261 41.6014 165.311 41.6791Z" fill="#CCECFA"/>
<path fill-rule="evenodd" clip-rule="evenodd" d="M187.17 41.121C187.178 41.1267 187.185 41.1327 187.193 41.1387C187.185 41.1327 187.177 41.1267 187.17 41.121ZM186.232 40.9244C187.627 41.0146 189.135 43.5579 187.287 43.6483C185.987 43.7117 184.531 41.4846 186.232 40.9244ZM186.037 38.8431C181.627 40.0762 183.643 46.3008 187.896 45.5817C189.828 45.2553 190.483 43.0141 189.844 41.3551C189.57 40.6427 189.035 40.0418 188.396 39.6319C187.925 39.3295 186.576 38.6929 186.037 38.8431Z" fill="#CCECFA"/>
<path fill-rule="evenodd" clip-rule="evenodd" d="M165.464 51.8382C169.344 51.705 173.225 51.5714 177.109 51.5354C179.214 51.516 181.308 51.5528 183.41 51.6736C184.342 51.727 185.274 51.7787 186.207 51.8185C186.368 51.8251 186.59 51.8141 186.835 51.8021C187.413 51.7737 188.118 51.739 188.45 51.9146C190.305 52.8977 186.525 53.0052 186.065 52.9975C185.036 52.9801 184.008 52.9294 182.98 52.8783C182.081 52.8339 181.183 52.7895 180.283 52.7675C174.513 52.6253 168.708 52.885 162.928 53.1434C161.604 53.2028 160.28 53.2619 158.959 53.3159C157.555 53.3737 156.153 53.4111 154.75 53.4485C152.745 53.5015 150.74 53.5549 148.735 53.6678C147.969 53.7108 147.204 53.7566 146.438 53.802C145.342 53.8674 144.245 53.9328 143.148 53.9906C142.289 54.036 141.43 54.08 140.57 54.1017C140.415 54.1057 140.214 54.1271 139.993 54.1508C139.46 54.2075 138.819 54.2763 138.472 54.1344C138.055 53.9635 137.718 53.7249 137.947 53.2191C138.141 52.7915 138.846 52.8426 139.359 52.88C139.499 52.8903 139.625 52.8993 139.723 52.8977C141.364 52.8656 143.002 52.7735 144.641 52.673C145.24 52.6363 145.839 52.5986 146.439 52.5609H146.439C149.558 52.3643 152.675 52.168 155.802 52.1146C159.024 52.0595 162.244 51.949 165.464 51.8382ZM185.73 77.4093L186.846 77.3956C187.422 77.446 187.679 78.0512 187.31 78.5165C187.026 78.8731 185.936 78.8891 185.226 78.8998C185.029 78.9024 184.861 78.9051 184.748 78.9141C182.893 79.0633 181.042 79.1308 179.182 79.1485C175.265 79.1858 171.362 79.3537 167.451 79.5771C163.448 79.8057 159.441 79.8915 155.434 79.9776H155.434C152.486 80.0407 149.538 80.1042 146.591 80.224C144.904 80.2928 143.216 80.3442 141.527 80.3886C141.346 80.3932 141.105 80.4193 140.832 80.449C139.765 80.5641 138.216 80.7317 137.865 79.8838C137.553 79.1311 137.986 78.7846 138.619 78.627C138.519 78.1814 138.538 77.5552 138.549 77.1963C138.552 77.0885 138.554 77.0047 138.553 76.9577C138.537 76.5077 138.525 76.0577 138.514 75.6077C138.502 75.098 138.489 74.5883 138.47 74.0789C138.452 73.6162 138.435 73.1532 138.419 72.6902C138.353 70.8633 138.288 69.0324 138.148 67.2128C138.083 66.3729 137.98 65.543 137.877 64.7145C137.713 63.3916 137.55 62.0724 137.542 60.7218C137.541 60.4788 137.529 60.1751 137.515 59.8326C137.445 58.0791 137.334 55.3071 138.421 54.4629C140.338 53.3433 139.959 56.5756 139.79 58.018C139.762 58.256 139.74 58.4456 139.734 58.5584C139.624 60.9572 139.774 63.2501 140.015 65.6335C140.178 67.2431 140.083 68.8474 139.988 70.4544C139.954 71.0282 139.92 71.6027 139.897 72.1775C139.886 72.4619 139.876 72.7463 139.866 73.0307C139.836 73.9056 139.806 74.7796 139.74 75.6535C139.733 75.7479 139.731 75.9292 139.728 76.1609C139.719 76.8145 139.705 77.8683 139.566 78.5082C139.863 78.4955 140.152 78.4985 140.39 78.5012C140.542 78.5029 140.674 78.5042 140.774 78.5012C141.232 78.4875 141.689 78.4738 142.147 78.4605C143.498 78.4207 144.85 78.3814 146.201 78.3303C149.391 78.2101 152.582 78.1701 155.773 78.13C159.542 78.0826 163.31 78.0352 167.077 77.8559C173.285 77.5605 179.515 77.4847 185.73 77.4093ZM186.882 53.9595C186.878 58.0684 187.196 62.0647 187.566 66.1569C187.796 68.6882 187.979 71.2292 188.126 73.7671C188.133 73.8846 188.131 74.0806 188.13 74.3259V74.3262C188.123 75.7296 188.107 78.7532 189.492 78.0299C190.538 77.4837 190.136 74.3169 189.913 72.5647V72.5644C189.865 72.1802 189.824 71.8637 189.81 71.6581C189.78 71.2198 189.75 70.7819 189.72 70.3436C189.58 68.3093 189.441 66.2764 189.258 64.2445L189.219 63.8162C189.007 61.4692 188.795 59.1239 188.758 56.7662C188.755 56.5712 188.773 56.2995 188.795 55.9928C188.856 55.1052 188.937 53.9231 188.569 53.4515C188.051 52.7882 186.883 52.9845 186.882 53.9595Z" fill="#CCECFA"/>
<path fill-rule="evenodd" clip-rule="evenodd" d="M165.641 64.0321C170.597 61.7869 175.612 59.5157 180.766 57.8984C181.138 57.7816 181.374 58.1661 181.289 58.4889C181.202 58.8214 180.396 59.1051 179.861 59.2934C179.701 59.3498 179.565 59.3975 179.48 59.4353C178.761 59.7574 178.039 60.0752 177.317 60.3933C176.578 60.7187 175.839 61.0445 175.102 61.3744C173.569 62.06 172.035 62.743 170.5 63.4256C168.857 64.1567 167.214 64.8877 165.573 65.6227C165.511 65.6504 165.448 65.6785 165.386 65.7062C167.618 66.5003 169.837 67.3298 172.046 68.1847C172.801 68.4765 173.554 68.7749 174.306 69.073C174.732 69.2416 175.157 69.4102 175.584 69.5777C175.723 69.6321 175.964 69.7062 176.255 69.795C177.201 70.0841 178.664 70.5318 178.773 70.9837C178.949 71.7201 176.928 71.0078 176.166 70.739C176.064 70.7033 175.985 70.6756 175.937 70.6599C174.811 70.2998 173.7 69.8988 172.589 69.4979L172.435 69.4422C171.555 69.1247 170.675 68.8036 169.796 68.4825C168.079 67.8556 166.361 67.2284 164.634 66.6268C164.39 66.5417 164.146 66.4569 163.902 66.3725C161.131 67.6189 158.365 68.8771 155.608 70.1552C154.13 70.8409 152.66 71.5422 151.194 72.2529C150.874 72.4081 150.478 72.6478 150.047 72.9085C149.016 73.5327 147.787 74.2761 146.943 74.2574C146.49 74.2474 146.184 74.1502 146.137 73.6005C146.088 73.033 146.815 72.7356 147.338 72.5216C147.463 72.4702 147.576 72.4238 147.665 72.3797C149.232 71.5949 150.808 70.8302 152.39 70.0751C155.53 68.5753 158.7 67.1352 161.881 65.7239C161.899 65.7159 161.917 65.7079 161.936 65.6995C160.171 65.102 158.402 64.5182 156.629 63.947C156.452 63.8899 156.089 63.7895 155.612 63.6569C153.358 63.0321 148.557 61.7005 148.771 60.9227C149.016 60.0331 153.517 61.6591 155.51 62.3791C155.884 62.514 156.169 62.6171 156.322 62.6659C158.704 63.4259 161.081 64.2077 163.444 65.0252C164.175 64.6964 164.908 64.3646 165.641 64.0321Z" fill="#CCECFA"/>
<path fill-rule="evenodd" clip-rule="evenodd" d="M144.405 83.573C145.855 83.8273 146.879 85.221 146.72 86.6804C146.504 88.6522 144.542 89.5558 142.728 89.2985C140.671 89.0064 140.238 87.2652 141.235 85.5898C141.456 85.219 141.71 84.775 142.111 84.5797C142.387 84.4455 142.738 84.5644 142.96 84.4562C143.739 84.0767 143.27 83.4722 144.405 83.573ZM143.744 82.2848C141.974 82.5111 138.703 84.5624 138.868 86.6146C139.012 86.8526 139.228 86.9501 139.516 86.9067C139.447 87.3514 139.47 87.791 139.584 88.2263C139.752 88.7911 140.088 89.2541 140.537 89.6219C141.463 90.3793 142.729 90.5653 143.882 90.4324C146.034 90.1847 147.731 88.7116 147.852 86.4701C147.97 84.2816 146.062 81.9917 143.744 82.2848Z" fill="#CCECFA"/>
<path fill-rule="evenodd" clip-rule="evenodd" d="M152.319 84.9553C151.524 85.3769 150.268 86.0241 149.802 86.8249C149.31 87.6705 149.819 88.5955 150.856 88.1956C151.679 87.8778 152.203 86.869 153.081 86.5455C153.856 86.2605 154.168 86.4057 154.987 86.6897C155.83 86.9825 156.568 87.2656 157.48 87.1938C158.627 87.1037 159.619 86.4381 160.742 86.2865C161.686 86.159 162.466 86.5272 163.37 86.6734C164.42 86.8433 165.107 86.4454 166.089 86.2384C166.757 86.0972 167.934 86.6707 168.422 86.4564C169.517 85.9741 168.358 85.3842 167.752 85.1893C166.73 84.8611 166.101 85.1509 165.129 85.4229C164.074 85.7184 163.618 85.4964 162.61 85.225C160.569 84.6759 158.992 86.0034 157.058 85.7621C155.267 85.5384 154.196 83.9602 152.319 84.9553Z" fill="#CCECFA"/>
<path fill-rule="evenodd" clip-rule="evenodd" d="M185.687 83.9741C187.651 85.8181 185.445 88.4415 183.279 86.9681C182.517 86.4493 182.504 85.6161 183.097 84.8707C183.64 84.1891 184.832 83.9234 185.687 83.9741ZM184.959 82.4843C183.124 82.8415 181.393 83.6847 181.227 85.8054C181.064 87.8747 183.184 88.8354 184.965 88.6999C188.963 88.3951 188.674 81.7653 184.959 82.4843Z" fill="#CCECFA"/>
</g>
<path opacity="0.5" fill-rule="evenodd" clip-rule="evenodd" d="M263.747 0.348782C261.467 0.381829 255.845 1.00472 255.009 3.02961C254.375 4.5668 256.26 4.22932 257.27 3.66985C258.637 2.91344 259.837 2.46079 261.53 2.2308C267.981 1.35355 274.179 4.49904 280.567 4.89694C282.987 5.04782 285.911 5.14596 288.221 4.55679C289.865 4.13719 290.082 3.22222 288.201 3.08268C286.608 2.96451 284.841 3.33738 283.204 3.32703C276.436 3.28331 270.418 0.252979 263.747 0.348782Z" fill="#CCECFA"/>
<g opacity="0.5">
<path fill-rule="evenodd" clip-rule="evenodd" d="M74.1936 96.3339C71.3851 96.3656 68.578 96.4691 65.7749 96.6466C63.1095 96.8159 60.2173 96.6874 57.5953 97.2048C56.8505 97.3517 55.8447 98.0313 56.8348 98.7784C57.5306 99.3038 60.0767 98.6996 60.9075 98.6485C63.9676 98.4602 67.0294 98.2346 70.0939 98.1261C72.995 98.0233 75.8958 97.9872 78.7986 97.9582C79.2417 97.9538 79.9771 97.8116 80.4185 97.9405C81.0526 98.1258 80.9023 98.1758 80.9496 98.9816C81.0356 100.442 81.012 101.907 80.983 103.369C80.955 104.783 80.9026 106.197 80.908 107.612C80.9113 108.621 80.5892 110.628 81.095 111.504C81.8231 112.766 82.5786 111.395 82.6329 110.557C82.7372 108.953 82.6906 107.33 82.6909 105.724C82.6912 104.216 82.7022 102.709 82.6492 101.202C82.6106 100.114 82.7659 98.2146 82.1805 97.2251C81.5841 96.2174 80.1482 96.4347 79.1007 96.3869C77.4664 96.3115 75.8292 96.3168 74.1936 96.3339Z" fill="#CCECFA"/>
<path fill-rule="evenodd" clip-rule="evenodd" d="M56.3245 98.1527C56.3275 100.985 56.0001 103.798 55.9085 106.627C55.8664 107.927 55.7811 109.356 56.1098 110.632C56.4415 111.921 57.495 112.201 57.6164 110.762C57.8621 107.847 57.8021 104.825 57.9931 101.888C58.0608 100.851 58.5005 98.9495 58.0901 97.9785C57.7287 97.1229 56.3229 96.959 56.3245 98.1527Z" fill="#CCECFA"/>
<path fill-rule="evenodd" clip-rule="evenodd" d="M82.6608 110.636C77.7834 111.283 72.6846 111.047 67.7721 111.149C65.4154 111.197 63.0594 111.2 60.7023 111.225C59.8795 111.234 57.7906 110.92 57.0791 111.383C55.9463 112.12 57.1751 112.689 57.9252 112.705C62.5766 112.808 67.2801 112.593 71.9305 112.44C74.0198 112.372 76.1161 112.338 78.2001 112.16C79.483 112.051 80.8849 111.945 82.1308 111.6C82.3961 111.526 82.9742 111.541 83.0336 111.179C83.0702 110.955 83.0039 110.589 82.6608 110.636Z" fill="#CCECFA"/>
<path fill-rule="evenodd" clip-rule="evenodd" d="M62.3789 114.753C61.0234 114.761 56.9384 114.131 56.377 115.454C55.6285 117.219 58.5483 116.807 59.3334 116.787C61.117 116.741 62.899 116.736 64.6829 116.737C66.4332 116.738 68.1835 116.726 69.9334 116.684C70.4405 116.672 71.6207 116.883 71.9124 116.272C72.1341 115.807 71.9588 115.441 71.55 115.195C70.5662 114.603 68.0108 114.946 66.8593 114.893C65.3681 114.824 63.8718 114.753 62.3789 114.753Z" fill="#CCECFA"/>
<path fill-rule="evenodd" clip-rule="evenodd" d="M78.8704 115.08C78.0956 115.126 76.5287 114.806 75.8346 115.161C75.0458 115.565 75.3238 116.196 76.0046 116.474C76.4763 116.666 78.411 116.565 78.8704 116.343C79.3491 116.11 79.8905 115.017 78.8704 115.08Z" fill="#CCECFA"/>
<path fill-rule="evenodd" clip-rule="evenodd" d="M87.3639 98.4305C86.5364 98.6578 86.7875 103.361 86.7661 104.107C86.7078 106.149 86.4784 108.719 87.1562 110.686C87.5886 111.94 88.4191 111.771 88.2774 110.45C88.1534 109.291 87.94 108.146 87.8476 106.979C87.6393 104.34 87.3552 101.524 87.5523 98.8825C87.6363 99.036 88.4211 100.46 88.6058 100.354C88.5501 100.387 87.7006 98.3417 87.3639 98.4305Z" fill="#CCECFA"/>
<path fill-rule="evenodd" clip-rule="evenodd" d="M96.671 96.6984C94.9964 96.7231 93.3222 96.7528 91.6482 96.7992C90.317 96.8362 88.2257 96.6172 87.0052 97.178C85.5516 97.8453 86.2411 99.3324 87.6063 99.3642C88.8141 99.3919 90.102 99.1191 91.3205 99.0774C94.6121 98.9646 97.9096 98.9406 101.202 98.9122C104.181 98.8865 107.286 99.2046 110.238 98.757C110.676 102.65 109.491 106.559 109.894 110.497C109.956 111.109 109.928 111.972 110.706 112.111C111.687 112.287 111.727 111.314 111.764 110.618C111.871 108.628 111.813 106.638 111.959 104.646C112.093 102.8 112.359 100.913 112.134 99.0644C111.859 96.7895 110.77 96.9717 108.845 96.8773C104.78 96.6777 100.741 96.6386 96.671 96.6984Z" fill="#CCECFA"/>
<path fill-rule="evenodd" clip-rule="evenodd" d="M91.0592 110.522C90.2058 110.544 88.7889 110.281 88.2421 111.1C87.6734 111.952 88.3481 112.695 89.1753 112.87C90.1544 113.077 91.431 112.794 92.4471 112.791C93.5053 112.788 94.5638 112.799 95.622 112.803C100.159 112.821 104.715 112.89 109.248 112.702C109.882 112.676 111.679 112.888 112.117 112.281C112.506 111.741 112.234 111.257 111.721 110.983C110.881 110.532 109.155 110.703 108.221 110.668C107.067 110.624 105.911 110.609 104.756 110.591C100.198 110.521 95.6166 110.41 91.0592 110.522Z" fill="#CCECFA"/>
<path fill-rule="evenodd" clip-rule="evenodd" d="M94.8969 114.462C93.1993 114.491 91.3877 114.417 89.7068 114.675C88.2289 114.901 88.0468 116.332 89.6378 116.499C91.1 116.653 92.8726 116.366 94.3418 116.271C94.8636 116.238 95.4703 116.285 95.7204 115.708C95.9814 115.104 95.4823 114.525 94.8969 114.462Z" fill="#CCECFA"/>
<path fill-rule="evenodd" clip-rule="evenodd" d="M107.732 114.612C106.826 114.635 104.179 114.245 103.73 115.281C102.983 117.007 106.566 116.351 107.254 116.326C108.12 116.294 111.497 116.801 111.497 115.42C111.498 114.065 108.562 114.592 107.732 114.612Z" fill="#CCECFA"/>
<path fill-rule="evenodd" clip-rule="evenodd" d="M56.178 123.186C56.1803 126.325 55.9849 129.493 56.271 132.624C56.3893 133.918 56.369 136.399 57.1181 137.496C57.6499 138.276 58.3873 138.221 58.6777 137.285C58.8717 136.66 58.5613 135.409 58.5267 134.74C58.4933 134.098 58.4543 133.456 58.4246 132.814C58.3483 131.159 58.3546 129.507 58.3773 127.851C58.3966 126.431 58.738 124.552 58.4163 123.186C58.1159 121.913 56.178 121.615 56.178 123.186Z" fill="#CCECFA"/>
<path fill-rule="evenodd" clip-rule="evenodd" d="M87.6818 120.425C82.2433 120.561 76.7924 120.439 71.3589 120.709C68.6791 120.842 66.0097 121.134 63.3433 121.425C62.0334 121.568 60.7242 121.715 59.4166 121.877C59.0219 121.925 55.743 122.052 56.9762 123.301C57.5147 123.846 59.2283 123.277 59.9064 123.196C61.2196 123.041 62.5351 122.906 63.8497 122.767C66.3517 122.502 68.8565 122.251 71.3692 122.112C77.2865 121.783 83.2284 121.882 89.1513 121.663C90.7536 121.604 92.3512 121.561 93.9541 121.624C94.3748 121.641 97.468 121.798 96.1251 120.654C95.49 120.114 93.096 120.393 92.3025 120.376C90.7623 120.345 89.2214 120.386 87.6818 120.425Z" fill="#CCECFA"/>
<path fill-rule="evenodd" clip-rule="evenodd" d="M95.0957 125.713C95.069 124.263 95.042 122.813 94.976 121.363C94.9067 119.838 96.9827 119.607 97.5981 120.842C98.0415 121.731 97.9635 123.244 97.8965 124.541C97.8698 125.063 97.8445 125.551 97.8561 125.948C97.8825 126.859 97.9495 127.801 98.0172 128.755C98.1879 131.156 98.3642 133.637 97.9158 135.904C97.6978 137.005 96.77 137.584 96.1522 136.984C96.1512 136.985 96.1505 136.986 96.1495 136.987C95.9172 137.33 95.194 137.33 94.6613 137.329C94.5146 137.329 94.3823 137.329 94.2789 137.336C92.8197 137.435 91.3875 137.603 89.9409 137.82C87.0591 138.252 84.2023 138.518 81.2895 138.59C79.3129 138.639 77.3336 138.655 75.3539 138.672C71.5626 138.704 67.7697 138.735 63.9904 138.995C62.7162 139.082 61.4617 139.233 60.2085 139.473C60.1018 139.493 59.9831 139.519 59.8571 139.548C58.9253 139.755 57.5761 140.055 57.4841 138.752C57.3744 137.204 60.7243 137.001 62.4482 136.897C62.7116 136.881 62.9369 136.867 63.106 136.852C68.3405 136.364 73.657 136.44 78.9135 136.514C79.1682 136.518 79.4229 136.521 79.6773 136.525C80.0873 136.531 80.4974 136.537 80.9075 136.544C83.1581 136.581 85.4062 136.619 87.6559 136.481C88.6797 136.418 89.7172 136.386 90.7563 136.353C92.4143 136.302 94.0769 136.25 95.6985 136.074C95.4538 135.125 95.4111 134.005 95.3708 132.949C95.3551 132.538 95.3397 132.136 95.3131 131.759C95.1707 129.746 95.133 127.73 95.0957 125.713Z" fill="#CCECFA"/>
<path fill-rule="evenodd" clip-rule="evenodd" d="M99.4974 122.481C98.7626 122.582 98.1499 123.211 98.4779 124.01C98.891 125.015 100.122 124.622 100.934 124.559C103.518 124.356 106.216 124.761 108.769 124.455C109.466 124.372 110.477 123.992 109.851 123.054C109.381 122.349 107.666 122.473 106.938 122.405C104.446 122.174 101.986 122.236 99.4974 122.481Z" fill="#CCECFA"/>
<path fill-rule="evenodd" clip-rule="evenodd" d="M103.858 126.868C102.856 126.935 100.523 126.882 100.101 128.024C99.3436 130.072 102.31 129.35 103.214 129.234C104.263 129.099 106.737 129.461 107.295 128.442C108.295 126.62 104.737 126.807 103.858 126.868Z" fill="#CCECFA"/>
<path fill-rule="evenodd" clip-rule="evenodd" d="M101.281 131.363C100.806 131.839 100.805 132.689 101.281 133.165C101.864 133.748 103.134 133.627 103.9 133.67C104.968 133.729 108.036 134.295 108.567 133.036C109.283 131.336 106.504 131.372 105.59 131.275C104.534 131.164 102.157 130.486 101.281 131.363Z" fill="#CCECFA"/>
<path fill-rule="evenodd" clip-rule="evenodd" d="M63.8347 102.275C63.8347 104.102 66.6845 104.102 66.6845 102.275C66.6845 100.457 63.8347 100.43 63.8347 102.275Z" fill="#CCECFA"/>
<path fill-rule="evenodd" clip-rule="evenodd" d="M69.2402 102.295C69.2402 104.384 72.4864 104.38 72.4864 102.295C72.4864 100.214 69.2402 100.193 69.2402 102.295Z" fill="#CCECFA"/>
<path fill-rule="evenodd" clip-rule="evenodd" d="M65.9701 105.072C64.3926 105.509 65.8461 106.848 66.5786 107.153C67.7431 107.64 69.3323 107.998 70.4969 107.269C70.9603 106.979 71.3363 106.594 70.9969 106.031C70.6349 105.432 70.1398 105.698 69.5887 105.753C68.8909 105.823 68.3268 105.813 67.6531 105.588C67.15 105.421 66.5189 104.921 65.9701 105.072Z" fill="#CCECFA"/>
<path fill-rule="evenodd" clip-rule="evenodd" d="M94.5906 102.39C94.5906 103.626 96.5069 103.626 96.5069 102.39C96.5069 101.155 94.5906 101.155 94.5906 102.39Z" fill="#CCECFA"/>
<path fill-rule="evenodd" clip-rule="evenodd" d="M98.8286 102.576C98.8286 103.949 100.958 103.949 100.958 102.576C100.958 101.203 98.8286 101.203 98.8286 102.576Z" fill="#CCECFA"/>
<path fill-rule="evenodd" clip-rule="evenodd" d="M98.6709 105.556C97.5527 105.7 94.3182 106.028 94.1372 107.409C93.8581 109.538 97.402 107.815 98.2108 107.647C99.2413 107.434 100.161 107.49 101.19 107.531C101.754 107.554 102.506 107.646 102.446 106.784C102.349 105.37 99.6484 105.43 98.6709 105.556Z" fill="#CCECFA"/>
<path fill-rule="evenodd" clip-rule="evenodd" d="M70.5542 125.193C69.7434 125.409 68.6833 126.812 69.241 127.671C70.1555 129.079 70.5586 126.917 70.9413 126.709C71.6377 126.33 72.2028 127.714 72.9306 126.988C74.0788 125.843 71.277 124.999 70.5542 125.193Z" fill="#CCECFA"/>
<path fill-rule="evenodd" clip-rule="evenodd" d="M79.8415 124.151C78.8803 124.16 76.851 125.523 76.7073 126.529C76.622 127.127 77.0177 127.701 77.6615 127.709C78.5379 127.72 78.8163 126.579 79.5761 126.341C80.3956 126.083 80.2739 126.676 80.9817 126.983C81.4997 127.208 82.1475 127.114 82.3272 126.476C82.6669 125.273 80.8293 124.132 79.8415 124.151Z" fill="#CCECFA"/>
<path fill-rule="evenodd" clip-rule="evenodd" d="M72.4838 129.912C70.9463 130.814 73.476 132.748 74.3531 132.99C75.677 133.355 78.3418 132.674 78.6555 131.054C78.7805 130.41 78.3778 129.826 77.6673 129.941C77.0826 130.037 76.7075 130.771 76.1658 131.034C75.4343 131.389 74.7842 131.365 74.1628 130.831C73.6567 130.395 73.3856 129.386 72.4838 129.912Z" fill="#CCECFA"/>
<path fill-rule="evenodd" clip-rule="evenodd" d="M73.5981 143.242C72.2245 143.535 70.828 143.339 69.4477 143.614C68.0402 143.896 67.199 144.428 65.8915 143.892C65.8298 143.866 65.7685 143.84 65.7071 143.814C64.695 143.377 63.6341 143.248 62.575 143.944C61.9479 144.355 60.0446 145.779 60.274 146.648C60.771 148.532 62.9127 145.578 63.4588 145.29C64.5003 144.741 65.2141 145.443 66.2862 145.64C67.5704 145.878 68.6036 145.198 69.8135 144.928C71.228 144.611 72.8196 144.501 74.2592 144.331C74.8276 144.264 76.9816 144.715 77.176 144.006C77.51 142.789 74.1381 143.127 73.5981 143.242Z" fill="#CCECFA"/>
<path fill-rule="evenodd" clip-rule="evenodd" d="M83.5085 147.036C83.5265 147.049 83.5985 147.104 83.5085 147.036V147.036ZM87.3557 143.168C88.5316 143.049 92.2942 142.208 93.0666 143.424C93.57 144.217 92.7713 147.142 92.0098 147.52C91.4007 147.822 89.9828 147.488 89.3147 147.464C88.0715 147.421 86.826 147.401 85.5841 147.324C85.1677 147.298 83.8278 147.374 83.5015 147.005C83.1161 146.57 83.1331 144.247 83.0424 143.671C84.1235 144.021 86.2252 143.283 87.3557 143.168ZM89.8668 141.975C88.3609 142.041 86.855 142.154 85.3601 142.356C84.5269 142.469 83.6825 142.769 82.913 142.911C82.665 142.957 82.2623 142.83 81.9582 142.977C81.0691 143.407 81.8475 146.314 82.0619 147.091C82.3913 148.284 83.2197 148.477 84.3809 148.59C85.9102 148.738 87.4707 148.691 89.005 148.673C90.4836 148.654 92.4775 148.983 93.3073 147.497C93.8438 146.536 94.4188 144.299 93.9604 143.229C93.3573 141.82 91.1053 141.924 89.8668 141.975Z" fill="#CCECFA"/>
<path fill-rule="evenodd" clip-rule="evenodd" d="M106.733 147.835C106.652 147.938 106.652 147.938 106.733 147.835V147.835ZM107.063 147.436C106.922 147.596 107.038 147.474 107.063 147.436V147.436ZM103.471 147.327C104.135 147.202 104.799 147.078 105.464 146.957C104.834 147.839 104.172 147.474 103.096 147.397C103.221 147.374 103.346 147.35 103.471 147.327ZM100.304 147.015C100.472 146.958 100.64 146.902 100.809 146.846C100.803 146.974 100.831 147.094 100.891 147.206C100.603 147.175 100.315 147.141 100.027 147.106C100.119 147.075 100.212 147.045 100.304 147.015ZM98.8359 145.93C98.8265 145.698 99.1739 145.857 99.3733 145.841C98.9892 146.18 98.8099 146.209 98.8359 145.93ZM104.085 143.304C104.136 143.24 104.203 143.243 104.286 143.314C104.195 143.345 103.845 143.493 104.085 143.304ZM107.489 142.903C107.498 142.903 107.687 143.159 107.489 142.903V142.903ZM107.394 142.82C107.443 142.858 107.443 142.858 107.394 142.82V142.82ZM106.969 142.77C107.612 143.705 107.665 142.888 106.969 142.77V142.77ZM98.7915 142.714C98.6502 142.832 98.6985 142.718 98.7915 142.714V142.714ZM101.453 140.973C100.272 141.042 98.1024 140.972 97.1156 141.603C95.8277 142.426 96.5055 145.258 96.6208 146.5C96.7909 148.336 97.6537 148.858 99.38 149.051C101.44 149.281 103.557 149.324 105.628 149.269C107.493 149.22 108.555 148.578 108.897 146.612C109.001 146.01 109.267 145.079 109.259 144.503C109.253 144.103 109.054 143.921 108.979 143.581C108.55 141.646 107.834 141.417 105.853 141.332C104.395 141.27 102.884 140.898 101.453 140.973Z" fill="#CCECFA"/>
</g>
<g opacity="0.5">
<path fill-rule="evenodd" clip-rule="evenodd" d="M164.049 96.5177C167.053 96.5818 170.462 98.2468 169.987 101.774C169.639 104.358 167.405 106.455 164.817 106.636C162.036 106.83 159.095 104.693 158.718 101.858C158.293 98.6688 161.111 96.454 164.049 96.5177ZM162.576 95.082C161.357 95.2639 160.194 95.9045 159.121 96.478C158.712 96.6973 156.636 98.0329 158.264 98.3647C154.342 104.698 163.572 110.581 168.762 106.465C171.093 104.616 172.32 101.112 170.813 98.3684C169.255 95.5313 165.56 94.633 162.576 95.082Z" fill="#CCECFA"/>
<path fill-rule="evenodd" clip-rule="evenodd" d="M161.857 100.473C161.857 101.656 163.691 101.656 163.691 100.473C163.691 99.2903 161.857 99.2903 161.857 100.473Z" fill="#CCECFA"/>
<path fill-rule="evenodd" clip-rule="evenodd" d="M165.257 100.663C165.257 101.945 167.246 101.945 167.246 100.663C167.246 99.3802 165.257 99.3802 165.257 100.663Z" fill="#CCECFA"/>
<path fill-rule="evenodd" clip-rule="evenodd" d="M162.963 103.199C162.695 104.172 165.746 104.671 165.848 103.544C165.896 103.007 163.149 102.52 162.963 103.199Z" fill="#CCECFA"/>
<path fill-rule="evenodd" clip-rule="evenodd" d="M171.906 102.597C175.416 102.176 179.036 102.371 182.563 102.472C183.446 102.497 184.328 102.522 185.211 102.537C185.772 102.546 186.984 102.816 187.475 102.553C189.481 101.476 185.545 100.955 184.988 100.905C181.48 100.616 176.065 100.513 172.546 100.649C171.505 100.69 171.28 102.672 171.906 102.597Z" fill="#CCECFA"/>
<path fill-rule="evenodd" clip-rule="evenodd" d="M187.702 120.07C187.732 116.387 187.864 112.68 188.147 109.008C188.262 107.511 188.4 106.017 188.514 104.52C188.568 103.815 188.818 102.828 188.405 102.209C187.978 101.572 187.043 101.44 186.479 102.004C185.804 102.879 186 104.347 185.916 105.405C185.787 107.032 185.632 108.657 185.554 110.288C185.404 113.443 185.369 116.653 185.623 119.804C185.742 121.291 186.001 122.742 186.346 124.192C186.503 124.852 187.753 127.792 187.49 128.198C187.083 128.827 184.074 128.589 183.422 128.606C181.747 128.651 180.071 128.681 178.396 128.713C176.962 128.74 175.528 128.76 174.093 128.773C173.524 128.778 170.177 128.676 170.92 129.522C162.618 130.101 154.159 129.134 145.908 128.802C145.491 128.785 144.809 128.667 144.18 128.633C144.105 128.329 144.043 128.057 144.027 127.867C143.919 126.54 143.891 125.208 143.773 123.88C143.558 121.452 143.141 119.048 142.893 116.623C142.645 114.202 142.67 111.772 142.526 109.345C142.501 108.929 142.443 105.521 141.584 104.693C141.991 104.848 142.648 104.868 143.026 104.837C146.086 104.59 149.124 104.058 152.159 103.6C153.027 103.47 154.997 103.562 155.717 103.128C156.34 102.752 156.587 101.433 155.503 101.54C152.477 101.864 149.468 102.368 146.466 102.864C145.663 102.996 144.862 103.138 144.061 103.283C143.527 103.38 142.115 103.372 141.7 103.695C141.197 104.087 141.143 104.354 141.314 104.531C141.077 104.466 140.792 104.568 140.45 104.911C139.804 105.752 140.412 107.826 140.489 108.813C140.581 109.997 140.627 111.183 140.68 112.369C140.784 114.664 141.025 116.928 141.393 119.196C141.807 121.736 142.158 124.287 142.573 126.827C142.68 127.488 142.821 128.133 143.001 128.772C141.884 129.343 142.643 130.252 143.529 130.414C143.535 130.415 143.542 130.416 143.548 130.417C143.824 131.091 144.21 131.715 144.511 130.812C144.534 130.743 144.545 130.658 144.548 130.562C146.835 130.821 149.348 130.66 151.6 130.752C156.477 130.952 161.383 131.251 166.265 131.099C168.198 131.039 170.136 130.867 172.052 130.609C173.175 130.458 174.302 130.277 175.407 130.027C175.486 130.009 175.607 129.99 175.746 129.967C175.768 129.966 175.791 129.966 175.813 129.966C177.505 129.94 179.195 129.895 180.885 129.824C182.304 129.765 183.729 129.735 185.144 129.601C186.022 129.518 187.879 129.533 188.418 128.648C188.908 127.844 188.088 125.772 187.972 124.869C187.767 123.278 187.689 121.673 187.702 120.07Z" fill="#CCECFA"/>
<path fill-rule="evenodd" clip-rule="evenodd" d="M170.558 109.437C169.206 109.552 167.956 110.188 166.592 110.196C165.447 110.203 164.32 109.86 163.168 109.911C161.817 109.969 161.074 110.844 159.892 111.137C158.95 111.369 158.356 110.648 157.528 110.328C156.482 109.925 155.709 110.133 154.813 110.743C154.154 111.191 152.618 112.197 152.63 113.103C152.665 115.849 155.865 112.056 156.509 112.01C157.366 111.949 158.324 112.927 159.236 112.983C160.441 113.057 161.214 112.279 162.324 111.995C163.447 111.708 164.66 112.06 165.786 112.169C167.07 112.293 168.194 112.007 169.436 111.7C170.64 111.402 171.665 111.418 172.889 111.668C173.714 111.836 175.771 112.816 176.132 111.556C176.624 109.84 171.503 109.356 170.558 109.437Z" fill="#CCECFA"/>
<path fill-rule="evenodd" clip-rule="evenodd" d="M170.969 114.673C168.2 114.943 165.413 115.179 162.63 115.254C161.425 115.287 156.792 114.77 157.203 116.303C157.556 117.618 163.86 116.79 165.144 116.69C166.562 116.58 167.977 116.426 169.388 116.247C169.888 116.184 171.095 116.249 171.447 115.829C171.784 115.429 171.618 114.609 170.969 114.673Z" fill="#CCECFA"/>
<path fill-rule="evenodd" clip-rule="evenodd" d="M151.861 121.656C151.798 121.683 151.798 121.683 151.861 121.656V121.656ZM152.446 121.648C153.136 121.626 152.988 121.262 153.677 121.452C153.995 121.539 154.027 121.41 154.274 121.713C154.754 122.306 154.302 123.598 153.828 124.076C152.074 125.846 149.969 121.727 152.446 121.648ZM152.446 119.912C147.644 120.073 149.653 127.5 153.832 125.984C155.558 125.358 156.643 122.537 155.628 120.952C155.134 120.181 154.504 120.044 153.677 119.99C153.485 119.978 153.243 120.258 153.123 120.245C152.838 120.215 152.865 119.896 152.446 119.912Z" fill="#CCECFA"/>
<path fill-rule="evenodd" clip-rule="evenodd" d="M163.928 121.911C163.843 121.884 165.444 122.351 165.269 122.168C165.643 122.558 165.14 123.479 164.717 123.639C163.693 124.029 163.118 122.433 163.928 121.911ZM164.639 119.897C163.136 120.11 161.975 120.737 161.77 122.411C161.58 123.957 162.623 125.521 164.267 125.552C167.853 125.617 167.962 119.433 164.639 119.897Z" fill="#CCECFA"/>
<path fill-rule="evenodd" clip-rule="evenodd" d="M181.005 121.978C178.373 122.211 181.215 124.722 181.005 121.978V121.978ZM179.786 119.043C179.537 119.468 179.749 119.919 180.124 120.167C176.772 120.876 177.531 125.926 180.942 125.18C182.677 124.801 182.996 122.974 182.737 121.467C182.614 120.75 180.829 117.256 179.786 119.043Z" fill="#CCECFA"/>
</g>
<path opacity="0.5" fill-rule="evenodd" clip-rule="evenodd" d="M200.586 126.037C199.036 126.244 195.372 127.531 195.404 128.914C195.453 131.071 198.568 128.714 199.26 128.397C202.982 126.695 207.802 128.901 211.677 129.37C213.454 129.585 216.93 129.983 218.499 129.088C221.29 127.496 214.836 127.895 214.014 127.831C209.546 127.484 205.101 125.431 200.586 126.037Z" fill="#CCECFA"/>
<g opacity="0.5">
<path fill-rule="evenodd" clip-rule="evenodd" d="M234.912 108.653C234.911 110.549 234.815 112.484 235.164 114.357C235.27 114.923 235.353 116.009 235.95 116.304C236.55 116.599 237.132 116.267 237.281 115.651C237.455 114.935 237.074 113.862 237.035 113.11C236.982 112.082 236.978 111.054 236.978 110.025C236.978 109.282 237.222 108.086 236.346 107.704C235.694 107.42 234.912 107.948 234.912 108.653Z" fill="#CCECFA"/>
<path fill-rule="evenodd" clip-rule="evenodd" d="M264.838 105.655C258.567 106.286 252.205 106.417 245.91 106.746C243 106.898 239.484 106.704 236.743 107.832C236.234 108.041 234.411 109.206 235.891 109.681C236.352 109.829 236.821 109.331 237.2 109.165C237.83 108.887 238.561 108.802 239.234 108.693C244.953 107.773 250.936 107.934 256.713 107.504C258.197 107.394 259.677 107.28 261.154 107.135C262.21 107.031 264.428 106.269 265.401 106.659C267.068 107.324 267.028 111.651 267.061 113.138C267.078 113.908 266.331 116.67 267.815 116.39C269.002 116.166 268.572 113.296 268.478 112.512C268.238 110.454 267.821 105.353 264.838 105.655Z" fill="#CCECFA"/>
<path fill-rule="evenodd" clip-rule="evenodd" d="M267.151 116.29C261.704 116.783 256.131 116.299 250.66 116.493C247.793 116.595 244.929 116.757 242.061 116.851C240.821 116.893 239.579 116.894 238.338 116.903C237.745 116.907 235.044 117.267 236.715 118.445C237.454 118.967 239.812 118.547 240.661 118.537C241.936 118.522 243.21 118.469 244.484 118.419C247.436 118.303 250.385 118.143 253.338 118.063C256.162 117.986 258.987 117.97 261.814 117.894C263.217 117.855 264.644 117.812 266.035 117.607C266.351 117.56 267.371 117.523 267.588 117.173C267.795 116.841 267.651 116.242 267.151 116.29Z" fill="#CCECFA"/>
<path fill-rule="evenodd" clip-rule="evenodd" d="M240.377 112.195C240.347 112.264 240.347 112.264 240.377 112.195V112.195ZM242.736 111.477C242.822 111.514 242.822 111.514 242.736 111.477V111.477ZM242.625 111.457C243.897 112.755 241.942 114.303 240.75 113.037C239.487 111.693 241.807 111.461 242.625 111.457ZM241.277 109.494C236.898 110.274 238.448 116.118 242.538 115.274C244.334 114.903 245.361 113.091 244.743 111.352C244.501 110.672 243.975 109.926 243.242 109.712C242.876 109.605 242.553 109.773 242.205 109.734C241.873 109.696 241.689 109.42 241.277 109.494Z" fill="#CCECFA"/>
<path fill-rule="evenodd" clip-rule="evenodd" d="M258.036 111.139C255.396 111.147 252.755 111.259 250.114 111.309C249.304 111.325 247.223 110.962 247.22 112.24C247.216 113.606 249.535 113.102 250.306 113.083C252.925 113.021 255.551 112.906 258.16 112.656C258.82 112.593 261.1 112.702 261.097 111.804C261.094 110.854 258.57 111.139 258.036 111.139Z" fill="#CCECFA"/>
<path fill-rule="evenodd" clip-rule="evenodd" d="M264.344 120.054C257.813 120.23 251.291 120.291 244.765 120.625C242.325 120.751 239.887 120.844 237.443 120.844C236.972 120.844 236.024 120.661 235.581 120.958C234.378 121.763 235.747 122.454 236.531 122.498C241.892 122.796 247.331 122.054 252.689 121.887C255.825 121.789 258.963 121.76 262.097 121.6C262.954 121.556 263.807 121.506 264.661 121.44C265.154 121.402 266.451 121.506 266.848 121.218C268.581 119.963 264.928 120.038 264.344 120.054Z" fill="#CCECFA"/>
<path fill-rule="evenodd" clip-rule="evenodd" d="M234.378 123.252C234.316 124.947 234.31 126.613 234.532 128.299C234.619 128.962 234.659 129.715 235.436 129.884C236.141 130.037 236.499 129.503 236.645 128.911C237.002 127.464 236.688 125.383 236.683 123.88C236.682 123.137 236.681 122.306 235.764 122.138C235.065 122.009 234.405 122.515 234.378 123.252Z" fill="#CCECFA"/>
<path fill-rule="evenodd" clip-rule="evenodd" d="M271.265 127.339C260.694 127.897 250.136 128.384 239.556 128.831C238.731 128.866 232.321 128.796 234.562 131.035C235.254 131.726 237.038 131.258 237.933 131.214C239.278 131.147 240.623 131.097 241.969 131.029C247.302 130.757 252.648 130.683 257.977 130.378C260.91 130.21 263.837 129.948 266.755 129.606C268.141 129.443 269.865 129.46 271.162 128.916C271.832 128.635 272.552 127.271 271.265 127.339Z" fill="#CCECFA"/>
<path fill-rule="evenodd" clip-rule="evenodd" d="M265.188 118.738C264.384 119.54 264.797 121.122 264.858 122.112C264.941 123.476 265.041 124.841 265.211 126.197C265.324 127.078 265.264 128.449 265.734 129.21C266.284 130.102 267.495 130.003 267.991 129.142C268.431 128.38 268.208 126.778 268.195 125.935C268.181 124.768 268.108 123.599 268.038 122.434C267.981 121.461 268.201 119.901 267.668 119.068C267.125 118.222 265.941 117.988 265.188 118.738Z" fill="#CCECFA"/>
<path fill-rule="evenodd" clip-rule="evenodd" d="M241.023 124.96C240.928 125.033 240.928 125.033 241.023 124.96V124.96ZM242.9 124.725C244.653 125.077 241.82 127.126 240.924 125.72C240.784 125.5 240.711 125.23 240.936 125.039C241.141 124.865 241.27 125.174 241.463 125.091C241.797 124.948 242.545 124.712 242.9 124.725ZM242.659 123.043C241.463 123.138 239.818 123.212 239.226 124.413C238.43 126.025 239.791 127.605 241.365 127.85C242.879 128.086 245.14 127.246 245.262 125.478C245.359 124.052 244.005 122.934 242.659 123.043Z" fill="#CCECFA"/>
<path fill-rule="evenodd" clip-rule="evenodd" d="M252.646 123.896C251.408 123.916 248.973 123.549 247.895 124.154C246.827 124.752 247.303 125.817 248.277 126.071C248.921 126.24 249.973 125.968 250.643 125.941C251.525 125.905 252.407 125.897 253.289 125.885C254.773 125.865 256.256 125.882 257.74 125.882C259.257 125.882 260.797 125.923 262.311 125.812C264.224 125.67 264.171 124.235 262.301 124.056C259.12 123.751 255.836 123.846 252.646 123.896Z" fill="#CCECFA"/>
<path fill-rule="evenodd" clip-rule="evenodd" d="M249.483 139.969C249.483 140.65 250.087 139.969 250.083 139.969C250.087 139.969 249.483 139.287 249.483 139.969Z" fill="#CCECFA"/>
<path fill-rule="evenodd" clip-rule="evenodd" d="M235.815 134.48C235.854 136.462 235.88 138.445 235.964 140.426C235.991 141.052 235.812 142.275 236.57 142.594C237.414 142.95 237.676 142.064 237.774 141.464C238.081 139.562 237.78 137.391 237.75 135.467C237.74 134.821 237.88 133.922 237.147 133.6C236.549 133.337 235.803 133.825 235.815 134.48Z" fill="#CCECFA"/>
<path fill-rule="evenodd" clip-rule="evenodd" d="M268.368 134.511C268.418 134.629 268.418 134.629 268.368 134.511V134.511ZM268.438 134.491C268.478 134.508 268.642 134.577 268.438 134.491V134.491ZM252.447 132.889C249.408 132.937 246.367 132.973 243.331 133.103C242.035 133.159 240.723 133.204 239.432 133.326C238.517 133.413 236.245 133.449 235.651 134.197C234.427 135.742 237.023 135.321 237.583 135.196C238.6 134.967 239.639 134.894 240.679 134.839C242.935 134.72 245.192 134.656 247.451 134.611C253.577 134.487 259.707 134.506 265.834 134.478C266.428 134.476 267.498 134.237 268.048 134.477C268.595 134.718 268.565 135.31 268.622 135.997C268.698 136.912 268.095 138.655 268.555 139.424C269.268 140.617 270.302 139.604 270.462 138.734C270.679 137.532 270.332 136.089 269.995 134.94C269.515 133.318 268.852 133.254 267.285 133.127C265.454 132.979 263.631 132.889 261.794 132.872C258.68 132.844 255.562 132.841 252.447 132.889Z" fill="#CCECFA"/>
<path fill-rule="evenodd" clip-rule="evenodd" d="M264.464 141.082C257.873 141.848 251.096 141.397 244.47 141.424C242.859 141.43 241.246 141.443 239.636 141.521C238.786 141.563 236.771 141.328 236.188 141.985C234.96 143.369 237.172 143.571 237.98 143.513C239.612 143.397 241.249 143.344 242.885 143.331C248.65 143.287 254.448 143.556 260.21 143.271C262.621 143.152 264.981 142.739 267.351 142.277C267.875 142.174 271.469 141.491 269.418 140.671C268.208 140.187 265.738 140.933 264.464 141.082Z" fill="#CCECFA"/>
<path fill-rule="evenodd" clip-rule="evenodd" d="M245.222 138.547C245.176 138.607 245.176 138.607 245.222 138.547V138.547ZM245.178 138.537C245.114 138.684 245.162 138.579 245.178 138.537V138.537ZM244.762 138C244.771 138.013 244.811 138.063 244.762 138V138ZM244.746 137.996C244.905 138.186 245.012 138.398 245.067 138.631C243.701 139.001 243.175 137.895 244.746 137.996ZM244.659 137.945C244.66 137.945 244.852 138.026 244.659 137.945V137.945ZM242.416 136.297C241.533 137.398 240.803 138.683 241.905 139.941C242.89 141.067 244.872 141.212 246.123 140.461C247.411 139.687 247.3 138.057 246.401 136.993C245.822 136.308 245.354 136.327 244.514 136.215C243.943 136.139 242.901 135.694 242.416 136.297Z" fill="#CCECFA"/>
<path fill-rule="evenodd" clip-rule="evenodd" d="M251.552 138.336C251.552 139.804 257.88 139.172 259.007 139.17C259.95 139.169 265.651 139.69 265.241 138.18C264.904 136.939 259.29 137.556 258.093 137.554C257.06 137.552 251.552 136.842 251.552 138.336Z" fill="#CCECFA"/>
</g>
<g opacity="0.5">
<path fill-rule="evenodd" clip-rule="evenodd" d="M168.939 152.085C172.108 152.545 175.405 154.038 175.377 157.731C175.354 160.837 172.753 164.142 169.412 163.956C166.406 163.79 163.576 160.498 163.199 157.677C163.004 156.216 163.369 154.643 164.228 153.44C165.353 151.865 167.137 151.868 168.939 152.085ZM167.442 150.077C165.15 150.089 163.473 150.92 162.054 152.672C161.546 153.3 160.954 153.977 160.566 154.689C160.205 155.354 160.268 157.044 161.51 156.252C161.204 159.525 163.115 162.702 165.861 164.379C168.846 166.202 172.221 165.847 174.706 163.291C176.98 160.952 177.781 157.001 176.117 154.108C174.454 151.216 170.6 150.046 167.442 150.077Z" fill="#CCECFA"/>
<path fill-rule="evenodd" clip-rule="evenodd" d="M174.315 149.2C172.848 150.277 171.508 151.695 170.395 153.133C169.307 154.539 168.588 156.294 167.281 157.52C166.621 156.801 165.848 154.857 164.532 155.628C163.439 156.268 164.143 157.368 164.675 158.091C166.049 159.957 167.574 160.708 169.336 158.864C170.936 157.19 171.845 154.957 173.342 153.187C173.998 152.41 175.012 151.639 175.534 150.781C176.008 150.004 175.422 148.385 174.315 149.2Z" fill="#CCECFA"/>
</g>
<g opacity="0.5">
<path fill-rule="evenodd" clip-rule="evenodd" d="M229.774 32.4142C229.776 32.5611 229.778 32.6993 229.781 32.8261C229.85 35.5984 229.81 38.5126 229.585 41.2782C229.507 42.2329 228.813 43.4433 228.022 42.1271C227.674 41.5482 227.723 40.3599 227.759 39.4853C227.768 39.251 227.777 39.0393 227.777 38.8677C227.776 37.8924 227.827 36.9066 227.879 35.9185C227.979 33.9868 228.08 32.0447 227.794 30.1473C227.789 30.1089 227.783 30.0719 227.778 30.0365C227.654 29.202 227.645 29.1445 226.729 29.1636C226.347 29.1713 225.965 29.1816 225.583 29.1919C225.207 29.2023 224.832 29.2123 224.456 29.2203C224.082 29.228 223.709 29.2353 223.336 29.2424C222.166 29.2651 220.996 29.2874 219.826 29.3305C219.631 29.3378 219.267 29.3836 218.807 29.441C217.888 29.5565 216.588 29.7197 215.494 29.719C215.494 29.7237 215.494 29.7284 215.495 29.7331C215.495 29.7414 215.496 29.7501 215.496 29.7588C215.508 30.3636 215.353 31.0386 215.196 31.7169C215.066 32.285 214.934 32.8552 214.901 33.3883C214.82 34.6564 214.819 35.9379 214.819 37.2197C214.817 38.78 214.816 40.3405 214.672 41.877C214.665 41.9518 214.661 42.0313 214.656 42.1114C214.656 42.1217 214.655 42.1324 214.655 42.1431C214.704 42.1357 214.752 42.1304 214.799 42.1274C215.587 42.0773 216.383 42.073 217.177 42.0683C217.615 42.066 218.052 42.0636 218.488 42.0533C219.271 42.0353 220.063 42.0359 220.859 42.0369C222.615 42.0389 224.386 42.0406 226.104 41.838C226.611 41.7722 226.789 42.4238 226.561 42.7616C226.357 43.0641 225.796 43.1128 225.385 43.1489C225.281 43.1579 225.186 43.1662 225.11 43.1776C224.002 43.3418 222.879 43.3992 221.761 43.4486C220.588 43.5007 219.412 43.5397 218.238 43.5725C217.958 43.5801 217.585 43.6179 217.171 43.6599C216.079 43.7704 214.704 43.9096 214.021 43.6002C213.287 43.268 213.305 42.8992 213.604 42.6131C213.473 42.324 213.452 41.9017 213.436 41.5713C213.43 41.4451 213.424 41.3323 213.413 41.2455C213.251 39.9299 213.152 38.6311 213.15 37.3042C213.145 34.7048 213.151 32.0056 213.869 29.4897C213.581 29.3635 213.408 29.1776 213.408 28.9099C213.412 27.56 217.607 27.6287 219.602 27.6611C219.959 27.6671 220.245 27.6718 220.424 27.6671C221.877 27.6291 223.33 27.624 224.784 27.6321C225.091 27.6334 225.432 27.6134 225.786 27.5927C226.539 27.5483 227.349 27.5005 227.999 27.6521C229.708 28.0493 229.749 30.7742 229.774 32.4142Z" fill="#CCECFA"/>
<path fill-rule="evenodd" clip-rule="evenodd" d="M240.462 27.9479C242.049 27.8638 243.636 27.8444 245.225 27.8388C246.907 27.8301 248.591 27.8605 250.272 27.9122L250.311 27.9135C251.056 27.9359 255.197 28.0604 253.294 29.0935C253.184 29.1536 253.059 29.204 252.922 29.2458C253.003 29.7244 253.013 30.2181 253 30.4562C252.951 31.3584 252.918 32.2617 252.886 33.1654C252.864 33.7772 252.842 34.3894 252.815 35.0013C252.74 36.6921 252.669 38.3825 252.611 40.0739C252.603 40.2815 252.614 40.5532 252.627 40.8557C252.667 41.8564 252.721 43.197 252.178 43.6927C251.702 44.128 251.377 44.0409 251.157 43.7451C249.794 44.1413 246.995 44.0125 245.588 43.9477C245.249 43.9324 244.991 43.9204 244.853 43.9204C244.606 43.9204 244.147 43.9514 243.568 43.9901C241.158 44.1524 236.659 44.4548 236.65 43.2654C236.649 43.1509 236.686 43.0481 236.756 42.9563C236.565 42.7614 236.394 42.475 236.283 42.1175C235.887 40.8343 235.85 39.4496 235.821 38.1194C235.779 36.2404 235.779 34.3597 235.778 32.479C235.778 31.5133 235.778 30.5476 235.772 29.5826C235.514 29.2361 235.667 28.8398 235.989 28.5635C236.673 27.9753 238.372 27.9679 239.601 27.9629C239.932 27.9616 240.228 27.9603 240.462 27.9479ZM237.88 42.4346C239.409 42.1074 241.986 42.2129 243.366 42.2693C243.728 42.284 244.008 42.2954 244.165 42.2947C245.575 42.2894 246.985 42.3087 248.394 42.3651C248.54 42.3712 248.756 42.3655 249.011 42.3591C249.522 42.3464 250.189 42.3294 250.756 42.3922C250.748 42.3154 250.743 42.2453 250.74 42.1845C250.676 40.9288 250.722 39.6623 250.768 38.4028C250.777 38.1351 250.787 37.8677 250.796 37.601C250.826 36.6593 250.866 35.718 250.906 34.777V34.7763C250.932 34.1838 250.957 33.5913 250.98 32.9988C250.99 32.7384 250.975 32.3852 250.958 31.988C250.924 31.1792 250.882 30.1878 251.027 29.4263C250.505 29.4163 249.97 29.3796 249.48 29.3456C249.008 29.3129 248.577 29.2828 248.238 29.2828C247.807 29.2828 247.378 29.2815 246.948 29.2801C245.756 29.2765 244.565 29.2728 243.374 29.2965C243.261 29.2988 243.148 29.3008 243.035 29.3032C241.394 29.3349 239.74 29.3666 238.114 29.5832C238.018 29.5959 237.904 29.6203 237.777 29.65C237.955 30.3964 237.868 31.4479 237.792 32.3692C237.754 32.8165 237.72 33.2331 237.719 33.5689C237.717 35.6572 237.772 37.7372 237.827 39.8152V39.8155C237.848 40.6013 237.869 41.3871 237.886 42.1729C237.889 42.2667 237.886 42.3538 237.88 42.4346Z" fill="#CCECFA"/>
<path fill-rule="evenodd" clip-rule="evenodd" d="M220.475 43.512C219.433 44.1219 219.995 46.5613 220.356 47.4052C220.95 48.7925 222.155 49.8781 223.455 50.5984C226.083 52.0538 229.871 51.6673 231.858 54.1909C231.879 54.2169 232.566 54.8979 232.722 54.016C232.85 53.2923 231.568 52.187 231.071 51.8242C229.658 50.7927 227.845 50.4602 226.211 49.9448C224.468 49.3951 222.555 48.3819 221.823 46.5827C221.565 45.9451 222.058 42.5817 220.475 43.512Z" fill="#CCECFA"/>
<path fill-rule="evenodd" clip-rule="evenodd" d="M244.311 44.6851C243.355 44.9488 243.987 46.265 243.986 46.9243C243.984 47.7465 243.721 48.6074 243.215 49.2633C241.932 50.9277 239.418 51.177 237.534 51.6541C236.166 52.0009 232.892 52.7443 232.764 54.5969C232.621 56.6662 235.511 54.1483 235.755 54.0448C238.456 53.0527 241.951 52.8611 244.036 50.6773C244.897 49.776 245.405 48.5727 245.486 47.3309C245.532 46.6319 245.54 44.349 244.311 44.6851Z" fill="#CCECFA"/>
<path fill-rule="evenodd" clip-rule="evenodd" d="M224.568 63.0375C224.546 59.2093 228.205 56.8937 231.513 56.0228C235.49 54.9736 239.195 57.7636 239.664 61.7773C240.158 66.0127 236.97 69.4229 232.766 69.6098C229.067 69.7741 224.592 67.1226 224.568 63.0375ZM233.452 57.8634C233.667 58.1562 233.861 58.6235 233.428 58.8779C233.011 59.1212 232.803 58.8288 232.593 58.5344C232.46 58.3484 232.327 58.1615 232.141 58.1091C231.658 57.9726 230.881 58.482 230.478 58.7787C230.315 58.8992 230.082 59.1586 229.81 59.4617C228.945 60.4271 227.681 61.8364 226.982 60.6237C224.197 65.4402 231.142 69.0447 235.091 67.2221C239.428 65.2202 238.584 57.9015 233.452 57.8634Z" fill="#CCECFA"/>
<path fill-rule="evenodd" clip-rule="evenodd" d="M229.812 61.7558C229.812 62.6347 231.198 62.6347 231.198 61.7558C231.198 60.8872 229.812 60.8501 229.812 61.7558Z" fill="#CCECFA"/>
<path fill-rule="evenodd" clip-rule="evenodd" d="M232.25 61.5908C232.25 62.6674 233.948 62.6674 233.948 61.5908C233.948 60.527 232.25 60.4816 232.25 61.5908Z" fill="#CCECFA"/>
<path fill-rule="evenodd" clip-rule="evenodd" d="M230.505 64.0991C229.116 64.9169 233.088 66.5423 233.245 64.8816C233.313 64.1649 232.619 64.3581 232.157 64.3054C231.715 64.255 230.924 63.8547 230.505 64.0991Z" fill="#CCECFA"/>
<path fill-rule="evenodd" clip-rule="evenodd" d="M229.903 69.9023C229.963 71.9917 229.934 74.0796 230.33 76.1399C230.405 76.5311 230.457 77.9505 230.766 78.2412C231.526 78.9563 231.538 77.5856 231.568 77.0606C231.673 75.1792 231.476 73.2398 231.433 71.3544C231.423 70.9488 231.53 70.1083 231.339 69.7157C231.035 69.0922 229.873 68.9073 229.903 69.9023Z" fill="#CCECFA"/>
<path fill-rule="evenodd" clip-rule="evenodd" d="M228.417 68.2085C225.372 71.6303 221.179 71.3783 216.955 71.6781C214.723 71.8363 212.467 72.1614 210.671 73.6068C209.835 74.2795 209.115 75.1217 208.631 76.0814C208.42 76.501 207.416 78.9221 208.923 78.3476C209.458 78.144 209.984 76.543 210.33 76.0693C210.988 75.1674 211.83 74.4227 212.841 73.9386C214.79 73.005 217.118 73.0207 219.232 72.9022C221.441 72.7787 223.812 72.6628 225.843 71.7008C226.799 71.2481 227.695 70.6837 228.464 69.9566C228.739 69.6966 229.328 69.255 229.372 68.8574C229.422 68.4031 228.986 67.5709 228.417 68.2085Z" fill="#CCECFA"/>
<path fill-rule="evenodd" clip-rule="evenodd" d="M213.046 78.7109C210.186 78.8067 207.329 78.9226 204.473 79.1035C203.888 79.1405 201.936 79.0224 202.433 80.2231C202.832 81.1858 205.212 80.5489 205.999 80.5025C208.975 80.3256 211.963 80.2638 214.934 79.9958C215.601 79.9357 218.617 79.9597 217.371 78.776C216.779 78.2122 213.864 78.6829 213.046 78.7109Z" fill="#CCECFA"/>
<path fill-rule="evenodd" clip-rule="evenodd" d="M200.617 80.0923C199.716 81.2779 200.13 84.1594 200.198 85.5844C200.264 86.9657 199.996 89.491 201.797 89.705C201.225 89.6299 202.231 89.74 202.394 89.7487C202.76 89.7684 203.127 89.7747 203.493 89.7787C204.339 89.7881 205.185 89.7767 206.031 89.7597C207.946 89.7213 209.866 89.6656 211.779 89.5594C212.583 89.515 216.945 89.5521 217.118 88.7159C217.339 87.647 213.156 88.2516 212.408 88.2859C210.584 88.3694 208.758 88.3871 206.933 88.4111C206.029 88.4231 205.123 88.4318 204.219 88.4141C203.845 88.4068 202.366 88.5603 202.139 88.311C201.945 88.0987 202.096 86.1459 202.092 85.8471C202.079 84.8734 202.08 83.8973 202.115 82.924C202.138 82.2687 202.492 81.0219 202.203 80.4064C201.923 79.8082 201.106 79.6039 200.617 80.0923Z" fill="#CCECFA"/>
<path fill-rule="evenodd" clip-rule="evenodd" d="M215.345 80.1476C215.397 82.3164 215.413 84.5292 215.925 86.6502C216.095 87.3563 216.334 88.812 217.042 89.1775C217.785 89.5611 218.427 89.0136 218.476 88.2759C218.537 87.3489 218.041 86.1315 217.939 85.1802C217.821 84.0702 217.752 82.959 217.711 81.8437C217.68 81.0049 217.935 79.7471 217.136 79.2063C216.419 78.7203 215.322 79.2096 215.345 80.1476Z" fill="#CCECFA"/>
<path fill-rule="evenodd" clip-rule="evenodd" d="M221.037 79.6183C220.147 80.5056 220.545 83.3146 220.656 84.4546C220.737 85.2894 221.65 89.3966 223.018 87.2549C223.623 86.3075 222.854 83.8023 222.86 82.6974C222.863 81.9937 223.112 81.1041 222.992 80.4281C222.833 79.5349 221.843 78.8115 221.037 79.6183Z" fill="#CCECFA"/>
<path fill-rule="evenodd" clip-rule="evenodd" d="M227.196 78.8859C229.868 78.6098 232.543 78.4028 235.229 78.3771C235.358 78.3761 235.494 78.3745 235.635 78.3725C237.476 78.3491 240.243 78.314 241.483 79.6984C242.158 80.4528 242.463 81.6188 242.73 82.6349C242.78 82.8245 242.828 83.0087 242.877 83.1843C242.919 83.3345 242.974 83.5054 243.033 83.6904C243.311 84.5626 243.688 85.7436 243.306 86.4743C243.096 86.8753 242.759 87.2171 242.248 87.0749C242.128 87.0418 242.035 86.9994 241.961 86.9494C242.157 87.1617 242.244 87.4641 242.117 87.7602C241.871 88.3323 241.093 88.3444 240.481 88.354C240.332 88.3564 240.193 88.3587 240.074 88.3684C238.034 88.5386 235.985 88.6525 233.938 88.6701C232.963 88.6788 231.988 88.6708 231.013 88.6628C230.01 88.6548 229.007 88.6465 228.004 88.6565C227.275 88.6635 226.533 88.7329 225.792 88.8023C224.855 88.8898 223.918 88.9773 223.007 88.9399C222.325 88.9118 221.598 88.6885 221.77 87.8063C221.911 87.0866 222.588 87.0238 223.195 86.9674C223.247 86.9624 223.3 86.9577 223.351 86.9524C225.282 86.7554 227.214 86.686 229.155 86.693C233.233 86.707 237.307 86.686 241.385 86.6646C241.553 86.6783 241.71 86.7424 241.84 86.8402C241.694 86.662 241.696 86.4243 241.699 86.1713C241.701 86.0568 241.702 85.9392 241.69 85.8224C241.665 85.5877 241.642 85.3541 241.619 85.1211C241.544 84.3503 241.469 83.5852 241.322 82.8098C241.3 82.693 241.278 82.5641 241.256 82.4279C241.122 81.6228 240.946 80.5566 240.307 80.122C239.664 79.685 238.404 79.706 237.422 79.7224C237.156 79.7267 236.911 79.7307 236.704 79.7254C234.084 79.6576 231.448 79.8439 228.839 80.0816C228.638 80.0999 228.438 80.1173 228.237 80.1346C227.244 80.2214 226.246 80.3082 225.268 80.4861C225.089 80.5189 224.816 80.6143 224.502 80.7238C223.668 81.0156 222.548 81.4065 222.168 80.9758C220.909 79.5491 226.444 78.9636 227.196 78.8859Z" fill="#CCECFA"/>
<path fill-rule="evenodd" clip-rule="evenodd" d="M255.622 75.6379C255.738 75.7875 255.738 75.7875 255.622 75.6379V75.6379ZM237.541 66.8C235.918 67.755 238.921 70.5574 239.687 70.9906C241.408 71.966 243.774 72.1132 245.697 72.3873C248.13 72.7348 250.777 72.8626 253.116 73.6608C254.112 74.0009 254.745 74.5317 255.397 75.3475C255.728 75.7611 256.523 77.5426 257.25 77.1207C258.707 76.2715 254.776 72.7071 253.909 72.3239C251.94 71.4526 249.611 71.2086 247.505 70.8705C245.547 70.5557 243.546 70.3217 241.636 69.7669C240.586 69.4621 239.84 68.9701 239.234 68.0284C238.857 67.4416 238.547 66.2105 237.541 66.8Z" fill="#CCECFA"/>
<path fill-rule="evenodd" clip-rule="evenodd" d="M262.417 77.7469C260.547 77.7887 258.68 77.9329 256.813 78.0768C255.765 78.1575 254.718 78.2383 253.67 78.3011C253.342 78.3208 253.014 78.3385 252.686 78.3562C251.763 78.4059 250.839 78.4556 249.921 78.5488C249.781 78.5628 249.62 78.5761 249.443 78.5905C248.663 78.6546 247.6 78.742 246.92 79.0271C246.297 78.5551 245.335 78.9563 245.32 79.7975C245.294 81.3297 245.308 82.8349 245.495 84.3577C245.538 84.7112 245.761 86.5008 246.247 87.4324C246.074 88.3124 246.823 88.5587 247.52 88.6261C250.221 88.8872 253.052 88.6845 255.845 88.4849C257.266 88.3831 258.677 88.2823 260.057 88.2432C260.514 88.2302 260.977 88.2252 261.444 88.2199C262.971 88.2029 264.524 88.1855 265.998 87.8968C266.058 87.8851 266.121 87.8737 266.188 87.8617C266.771 87.7572 267.578 87.6127 267.638 86.9698C267.675 86.5839 267.458 86.2307 267.095 86.181C267.118 85.8595 267.078 85.5087 267.048 85.251C267.041 85.1909 267.035 85.1358 267.031 85.0874C266.941 84.1935 266.718 83.3052 266.501 82.4283C266.451 82.231 266.401 82.0344 266.355 81.8388C266.301 81.6218 266.251 81.3634 266.201 81.0854C266.014 80.103 265.781 78.8689 265.161 78.2957C264.511 77.6949 263.451 77.7212 262.604 77.7426C262.541 77.7443 262.477 77.7459 262.417 77.7469ZM265.711 86.2771C265.488 85.6956 265.424 84.9095 265.361 84.1621C265.321 83.6931 265.284 83.2391 265.211 82.8609C265.154 82.5772 265.111 82.2781 265.064 81.974C264.951 81.2353 264.834 80.4678 264.558 79.8206C264.184 78.9537 263.854 78.9867 263.074 79.0652C262.931 79.0798 262.767 79.0959 262.591 79.1082C261.794 79.1623 260.997 79.2311 260.204 79.3002C259.823 79.3332 259.44 79.3663 259.06 79.3976C257.426 79.5318 255.794 79.6353 254.161 79.7385C253.206 79.7989 252.252 79.859 251.298 79.9257C250.549 79.9778 249.818 80.1203 249.09 80.2622C248.514 80.3747 247.939 80.4869 247.359 80.5533C247.351 80.7519 247.334 80.9512 247.318 81.1411C247.296 81.3998 247.276 81.6408 247.28 81.8381C247.3 82.7134 247.376 83.5829 247.454 84.4542C247.466 84.588 247.478 84.7219 247.489 84.8561C247.503 85.0166 247.538 85.2229 247.576 85.4519C247.635 85.8061 247.704 86.214 247.719 86.5896C247.789 86.5892 247.86 86.5896 247.929 86.5896C248.018 86.5899 248.106 86.5902 248.19 86.5889C250.246 86.5528 252.301 86.4904 254.357 86.4113C254.619 86.4013 254.881 86.3909 255.144 86.3809C256.976 86.3095 258.81 86.2377 260.647 86.2167C261.374 86.2083 262.114 86.2314 262.854 86.2544C263.807 86.2838 264.764 86.3135 265.711 86.2771Z" fill="#CCECFA"/>
</g>
<path fill-rule="evenodd" clip-rule="evenodd" d="M101.089 111.429C103.514 112.894 105.897 113.601 107.015 113.313C109.82 112.588 110.078 102.307 107.908 98.2541C105.738 94.2013 94.5812 92.4344 94.0188 100.465C93.8234 103.252 94.9916 105.739 96.7172 107.769L93.623 122.22H102.611L101.089 111.429Z" fill="#B28B67"/>
<path fill-rule="evenodd" clip-rule="evenodd" d="M104.357 93.8397C103.129 93.4645 101.347 93.3373 100.596 93.4234C101.023 92.3993 101.193 91.258 101.054 90.1471C100.92 89.0676 100.439 88.1482 99.9937 87.1852C99.7883 86.7409 99.5556 86.2996 99.2089 85.9598C98.8555 85.614 98.4084 85.3856 97.9397 85.2765C97.4596 85.165 96.9578 85.1743 96.4771 85.2755C96.2647 85.3202 96.0737 85.4177 95.8653 85.4718C95.652 85.5272 95.5483 85.3933 95.3933 85.2588C95.0199 84.9347 94.4721 84.7744 93.9997 84.7173C93.4696 84.6529 92.9192 84.733 92.4138 84.9076C91.9217 85.0779 91.449 85.3539 91.0929 85.7558C90.9345 85.9351 90.7909 86.1387 90.6972 86.3637C90.6588 86.4558 90.6525 86.5106 90.5608 86.5446C90.4758 86.5757 90.3761 86.5767 90.2884 86.6064C89.44 86.8945 88.7142 87.5514 88.3195 88.3949C88.0888 88.887 87.9797 89.7535 88.0094 90.7246C88.0394 91.6956 88.9146 94.2292 89.733 95.1536C90.4638 95.9784 91.5376 96.5229 92.5738 96.7612C91.886 97.549 91.428 98.5334 91.0896 99.5348C90.7218 100.622 90.4941 101.752 90.4101 102.904C90.3301 103.998 90.3228 105.155 90.5788 106.225C90.8182 107.226 91.3303 108.048 92.1851 108.569C92.5768 108.808 92.9979 108.987 93.4216 109.151C93.8393 109.312 94.2581 109.469 94.6955 109.56C95.5236 109.731 96.4774 109.702 97.1152 109.042C97.3449 108.804 97.5976 108.505 97.7653 108.214C97.8256 108.109 97.862 108.041 97.789 107.939C97.701 107.816 97.5593 107.722 97.4462 107.627C96.8035 107.081 96.4058 106.352 96.3054 105.485C96.2034 104.606 96.4391 103.472 97.2919 103.089C98.3447 102.615 99.5042 103.158 100.44 103.665C100.837 102.259 101.654 100.993 102.934 100.347C104.351 99.6336 105.976 99.5502 107.431 98.938C107.811 98.7784 108.197 98.5971 108.476 98.272C108.593 98.1362 108.73 97.9599 108.776 97.7803C108.837 97.5443 108.685 97.3464 108.568 97.1621C107.946 96.1864 105.586 94.2152 104.357 93.8397Z" fill="#191847"/>
<path fill-rule="evenodd" clip-rule="evenodd" d="M92.8738 219.032C108.8 219.032 121.711 206.684 121.711 191.452C121.711 176.22 108.8 163.871 92.8738 163.871C76.9476 163.871 64.0369 176.22 64.0369 191.452C64.0369 206.684 76.9476 219.032 92.8738 219.032Z" fill="#C5CFD6"/>
<path fill-rule="evenodd" clip-rule="evenodd" d="M137.706 189.981C139.099 194.87 142.569 204.136 147.367 214.777L151.927 213.444C147.938 188.958 144.618 172.746 142.717 167.812C141.46 164.552 131.955 164.934 133.048 171.494C133.507 174.244 135.321 181.61 137.706 189.981ZM118.965 172.638C111.528 174.181 96.111 179.638 91.7087 181.382C88.9416 182.477 90.7255 186.194 93.0859 185.869C93.4856 185.814 94.8998 185.655 97.0098 185.418C103.788 184.659 117.745 183.094 128.331 181.568C133.905 180.764 130.907 170.302 125.119 171.409C123.172 171.782 121.101 172.194 118.965 172.638Z" fill="#B28B67"/>
<path fill-rule="evenodd" clip-rule="evenodd" d="M143.008 165.049C142.248 162.563 107.69 153.74 107.69 153.74H104.858V156.384L128.671 168.531C128.64 168.923 128.659 169.337 128.736 169.774C128.564 178.778 132.41 185.505 136.219 192.165C138.709 196.521 141.183 200.847 142.506 205.764L151.255 204.456C151 203.803 150.597 200.858 150.046 196.832C148.657 186.681 146.326 169.653 143.057 165.149C143.046 165.133 143.034 165.117 143.022 165.101C143.018 165.084 143.013 165.066 143.008 165.049Z" fill="#3C3C3C"/>
<path fill-rule="evenodd" clip-rule="evenodd" d="M106.836 175.744C104.658 175.307 102.651 174.917 100.934 174.615C89.8436 172.667 86.6097 166.718 88.5217 153.74H108.956C112.293 154.701 129.64 161.99 138.641 165.866C144.598 168.432 142.72 177.682 139.346 180.089C139.328 180.237 139.267 180.337 139.159 180.382C126.369 185.694 115.463 185.297 108.46 185.043C105.526 184.936 103.277 184.854 101.862 185.227L99.6438 178.216L106.836 175.744Z" fill="#3C3C3C"/>
<path fill-rule="evenodd" clip-rule="evenodd" d="M94.0416 180.928C94.0286 180.537 93.6996 180.225 93.3115 180.265C92.5174 180.346 91.2749 180.514 90.6818 180.804C89.7713 181.249 88.1724 182.406 88.1724 182.406C88.6874 183.465 97.4322 201.429 97.4322 201.429C97.4322 201.429 100.24 200.975 99.6568 199.282C99.0744 197.589 98.717 196.455 98.717 196.455L98.3456 185.649C98.3393 185.461 98.1793 185.316 97.9919 185.327L96.297 185.434C96.297 185.434 94.8884 184.292 94.4384 183.367C94.153 182.781 94.0666 181.666 94.0416 180.928Z" fill="#E4E4E4"/>
<path fill-rule="evenodd" clip-rule="evenodd" d="M146.14 212.348C145.784 212.189 145.359 212.348 145.225 212.715C144.95 213.466 144.555 214.659 144.555 215.32C144.555 216.335 144.893 218.282 144.893 218.282C146.068 218.282 166.015 218.282 166.015 218.282C166.015 218.282 166.839 215.555 165.065 215.337C163.291 215.12 162.118 214.944 162.118 214.944L152.261 210.542C152.09 210.465 151.889 210.545 151.817 210.719L151.17 212.293C151.17 212.293 149.528 213.06 148.501 213.06C147.85 213.06 146.813 212.649 146.14 212.348Z" fill="#E4E4E4"/>
<path fill-rule="evenodd" clip-rule="evenodd" d="M136.571 157.355L124.625 148.566L121.984 155.106L133.814 160.022C137.159 163.959 139.03 165.601 139.426 164.946C139.76 164.394 139.499 163.878 139.259 163.402C139.072 163.031 138.896 162.685 139.025 162.366C139.319 161.638 141.567 161.715 143.696 161.879C145.826 162.043 145.205 161.094 144.691 160.625C142.518 159.321 139.811 158.231 136.571 157.355ZM73.9232 172.843C75.0207 170.612 78.758 148.869 78.758 148.869L86.5842 148.9C86.5842 148.9 79.3357 172.345 78.758 173.78C78.0075 175.643 79.2824 178.351 80.1468 180.187C80.2805 180.471 80.4046 180.734 80.5096 180.97C79.31 181.508 78.7339 180.858 78.1265 180.173C77.4404 179.398 76.7143 178.58 75.0054 179.376C74.3453 179.684 73.7205 180.048 73.1101 180.403C71.0017 181.631 69.0648 182.76 66.4297 181.13C66.0119 180.872 65.5542 179.9 66.6604 179.14C69.4158 177.247 73.3868 173.933 73.9232 172.843Z" fill="#B28B67"/>
<path fill-rule="evenodd" clip-rule="evenodd" d="M100.999 115.965L104.237 115.409C116.252 125.808 121.188 145.788 135.915 156.372L132.37 160.775C106.82 157.605 100.488 133.235 100.999 115.965Z" fill="#3896B4"/>
<path fill-rule="evenodd" clip-rule="evenodd" d="M86.8818 156.742C86.8818 156.742 106.359 156.742 115.536 156.742C116.845 156.742 116.598 154.847 116.409 153.891C114.225 142.859 105.697 130.967 105.697 115.263L97.4322 113.964C90.5958 124.981 88.2317 138.544 86.8818 156.742Z" fill="#DDE3E9"/>
<path fill-rule="evenodd" clip-rule="evenodd" d="M83.6597 164.622C82.3721 167.721 81.1093 170.425 79.9194 172.502H73.7741C73.113 151.083 81.2063 134.601 87.9797 124.663C86.4758 124.556 85.1182 123.925 84.2601 122.374C81.2393 116.912 82.3301 113.905 85.5586 112.917C87.3339 112.373 89.0035 112.744 91.0022 113.188C92.6377 113.552 94.4934 113.964 96.8074 113.964H96.8097C97.0341 113.964 97.2381 113.979 97.4235 114.008L100.166 114.165C100.166 114.165 111.301 151.978 106.308 164.622H83.6597Z" fill="#53ABC2"/>
<path fill-rule="evenodd" clip-rule="evenodd" d="M83.6597 164.622C85.3496 160.556 87.0822 155.81 88.7495 150.909C89.3702 156.306 90.4037 161.728 92.1247 164.622H83.6597Z" fill="black" fill-opacity="0.1"/>
<path fill-rule="evenodd" clip-rule="evenodd" d="M206.653 87.7507C204.224 89.2164 201.838 89.9244 200.718 89.6353C197.908 88.9106 197.65 78.6216 199.824 74.5655C201.997 70.5091 213.17 68.7412 213.733 76.778C213.929 79.567 212.759 82.0565 211.031 84.0874L214.13 98.5494H205.128L206.653 87.7507Z" fill="#B28B67"/>
<path fill-rule="evenodd" clip-rule="evenodd" d="M201.852 71.8907C202.058 71.7675 202.489 71.5075 202.708 71.4133C202.76 71.3906 203.122 71.1319 203.132 71.1353C203.406 71.2281 204.2 71.5699 204.268 71.8653C204.278 71.8877 204.289 71.9087 204.299 71.9271C204.411 72.1317 204.514 72.3416 204.613 72.5539C204.829 73.0203 205.016 73.5076 205.194 73.991C205.541 74.9323 205.842 75.896 206.119 76.8618C206.401 77.8448 206.641 78.8392 206.909 79.8263C207.295 81.2467 207.788 82.6323 208.171 84.052C208.416 84.9586 208.552 85.876 208.488 86.8089C208.487 86.8203 208.487 86.8313 208.486 86.8427C208.485 86.8473 208.485 86.852 208.484 86.8567C208.474 86.9999 208.458 87.1438 208.437 87.288C208.419 87.4115 208.401 87.535 208.381 87.6588C208.032 86.9602 207.764 86.1904 207.481 85.4597C207.453 85.3882 207.427 85.3162 207.401 85.2437C207.31 85.0955 207.216 84.9486 207.122 84.8021C206.527 83.8778 205.931 82.9571 205.361 82.0161C204.336 80.3237 203.32 78.5956 202.105 77.0417C201.746 76.5827 201.379 76.131 201.024 75.6684C200.823 75.405 200.626 75.1373 200.436 74.8649C200.3 74.67 199.71 73.991 199.924 73.5831C200.033 73.3741 201.317 72.2105 201.852 71.8907Z" fill="#2C2C2C"/>
<path fill-rule="evenodd" clip-rule="evenodd" d="M202.643 71.4474C202.442 71.5148 202.54 71.0972 202.734 70.95C203.634 70.269 207.074 70.022 210.067 70.6442C212.072 71.0608 214.405 72.0983 216.006 73.4319C217.45 74.6343 218.443 76.5613 218.954 78.4237C219.491 80.3788 219.572 82.4173 219.273 84.4222C219.207 84.8628 219.066 85.2824 218.988 85.7134C218.899 86.1991 218.854 86.6664 218.696 87.1388C218.599 87.4278 218.435 87.7112 218.352 88.002C218.258 88.3338 218.316 88.6409 218.384 88.9784C218.496 89.5285 218.635 90.0773 218.832 90.6027C219.128 91.3915 219.488 92.1305 219.713 92.949C220.013 94.0386 221.267 97.5833 220.351 98.5494H202.903C203.343 97.3497 204.661 95.9373 204.928 94.6528C205.086 93.8961 205.16 92.2437 205.177 92.1836C205.57 89.4697 206.338 88.1739 206.818 87.7036C207.299 87.2332 207.94 87.0887 207.973 86.6808C208.109 84.9934 207.439 83.3767 206.947 81.8021C206.362 79.9255 205.933 78.0021 205.329 76.1317C205.062 75.3032 203.684 71.0972 202.643 71.4474Z" fill="#53ABC2"/>
<path fill-rule="evenodd" clip-rule="evenodd" d="M209.418 79.4505C209.56 76.5944 209.418 75.4788 208.76 73.3885H209.166C209.807 74.218 210.344 76.7553 209.741 79.4505H209.418ZM217.369 79.316C217.439 79.1424 217.512 78.9648 217.587 78.7829L217.845 78.9071C217.031 81.887 216.041 84.1876 212.642 86.1163L212.378 85.9311C215.593 83.6679 216.282 81.9791 217.369 79.316ZM212.549 75.7516C212.515 76.0099 212.483 76.2616 212.451 76.5076C211.962 80.283 211.653 82.6774 208.929 87.0196L209.237 87.1141C212.223 83.087 212.696 79.8003 212.837 75.7746L212.549 75.7516ZM215.49 87.9893L215.754 88.3108C214.431 88.5882 213.532 89.5623 212.501 90.6788C211.41 91.8602 210.172 93.2014 208.129 94.0457L207.749 93.8153C209.979 92.6547 211.017 91.5007 211.923 90.4932C212.86 89.4504 213.657 88.5645 215.49 87.9893Z" fill="black" fill-opacity="0.2"/>
<path fill-rule="evenodd" clip-rule="evenodd" d="M220.118 130.261L206.025 176.483L199.199 215.791H193.846L201.06 130.261H220.118Z" fill="#3C3C3C"/>
<path fill-rule="evenodd" clip-rule="evenodd" d="M225.16 130.261C224.203 155.639 225.33 168.73 225.544 171.035C225.758 173.341 228.691 188.291 235.637 216.565L229.933 214.6C218.957 188.669 215.217 175.192 213.958 171.787C212.699 168.382 209.355 154.54 203.927 130.261H225.16Z" fill="#3C3C3C"/>
<path fill-rule="evenodd" clip-rule="evenodd" d="M234.637 214.115C234.993 213.956 235.418 214.115 235.553 214.483C235.828 215.235 236.222 216.428 236.222 217.09C236.222 218.106 235.884 220.056 235.884 220.056C234.709 220.056 214.762 220.056 214.762 220.056C214.762 220.056 213.939 217.325 215.713 217.108C217.486 216.89 218.66 216.714 218.66 216.714L228.516 212.307C228.687 212.23 228.888 212.31 228.96 212.484L229.607 214.059C229.607 214.059 231.249 214.828 232.276 214.828C232.927 214.828 233.964 214.417 234.637 214.115Z" fill="#E4E4E4"/>
<path fill-rule="evenodd" clip-rule="evenodd" d="M199.433 214.115C199.79 213.956 200.215 214.115 200.35 214.483C200.624 215.235 201.019 216.428 201.019 217.09C201.019 218.106 200.681 220.056 200.681 220.056C199.506 220.056 179.559 220.056 179.559 220.056C179.559 220.056 178.735 217.325 180.509 217.108C182.283 216.89 183.456 216.714 183.456 216.714L193.312 212.307C193.484 212.23 193.685 212.31 193.756 212.484L194.404 214.059C194.404 214.059 196.046 214.828 197.073 214.828C197.723 214.828 198.761 214.417 199.433 214.115Z" fill="#E4E4E4"/>
<path fill-rule="evenodd" clip-rule="evenodd" d="M221.991 130.261L215.999 153.81H197.697L200.426 130.261H221.991Z" fill="#53ABC2"/>
<path fill-rule="evenodd" clip-rule="evenodd" d="M225.361 130.261C228.319 139.155 226.485 153.81 226.485 153.81H207.808L202.673 130.261H225.361Z" fill="#53ABC2"/>
<path fill-rule="evenodd" clip-rule="evenodd" d="M245.74 142.106C244.342 140.052 234.918 112.414 234.918 112.414L226.789 113.589C226.789 113.589 240.303 142.369 241.076 143.708C242.079 145.447 241.19 148.303 240.588 150.24C240.495 150.539 240.408 150.817 240.337 151.065C241.601 151.43 242.082 150.706 242.589 149.944C243.163 149.082 243.769 148.171 245.574 148.721C246.272 148.933 246.942 149.206 247.597 149.472C249.858 150.393 251.936 151.238 254.323 149.259C254.701 148.945 255.02 147.919 253.818 147.322C250.822 145.834 246.424 143.11 245.74 142.106ZM175.691 140.678L184.772 128.939L189.115 134.49L179.079 142.477C176.942 147.182 175.593 149.275 175.031 148.756C174.558 148.318 174.667 147.749 174.767 147.226C174.845 146.818 174.918 146.438 174.707 146.167C174.224 145.55 172.081 146.244 170.076 146.989C168.071 147.735 168.407 146.652 168.772 146.06C170.506 144.208 172.812 142.414 175.691 140.678Z" fill="#B28B67"/>
<path fill-rule="evenodd" clip-rule="evenodd" d="M206.898 92.8426L203.61 92.7438C201.059 111.331 176.775 127.173 176.117 134.079C175.876 136.612 177.814 137.603 177.008 138.477L181.611 140.944C182.202 140.02 183.922 141.316 186.925 139.818C189.927 138.32 209.869 114.008 206.898 92.8426Z" fill="#3896B4"/>
<path fill-rule="evenodd" clip-rule="evenodd" d="M212.25 88.2721C212.97 88.1188 213.678 88.5795 213.831 89.3009L214.323 91.6145C221.02 95.4129 237.95 107.196 245.483 132.507C246.275 135.166 245.737 136.726 245.308 137.972C245.014 138.824 244.771 139.53 245.038 140.34L239.787 142.616C239.701 142.002 238.946 141.632 237.973 141.154C236.559 140.46 234.681 139.538 233.722 137.309C232.813 135.196 231.548 132.575 230.069 129.669C230.537 133.727 230.292 137.554 229.053 140.869C225.961 149.141 200.681 144.104 197.063 136.619C195.132 132.625 196.545 128.844 198.415 123.845C200.787 117.498 203.895 109.187 201.83 95.979L200.991 92.0317C200.838 91.3107 201.297 90.6017 202.018 90.4485L212.25 88.2721Z" fill="#53ABC2"/>
</svg>
